<mxfile host="65bd71144e">
    <diagram name="Page-1" id="I0CW_g4lBkqAYkbkqMO9">
        <mxGraphModel dx="6768" dy="3076" grid="1" gridSize="10" guides="1" tooltips="1" connect="1" arrows="1" fold="1" page="1" pageScale="1" pageWidth="850" pageHeight="1100" math="0" shadow="0">
            <root>
                <mxCell id="0"/>
                <mxCell id="1" parent="0"/>
                <mxCell id="2" style="edgeStyle=none;html=1;exitX=0.5;exitY=1;exitDx=0;exitDy=0;entryX=0.5;entryY=0;entryDx=0;entryDy=0;endArrow=none;endFill=0;" parent="1" source="KDYq-KStEFV5s4hPV7sc-1" target="KDYq-KStEFV5s4hPV7sc-4" edge="1">
                    <mxGeometry relative="1" as="geometry"/>
                </mxCell>
                <mxCell id="4" style="edgeStyle=none;shape=connector;rounded=1;html=1;exitX=0.5;exitY=1;exitDx=0;exitDy=0;entryX=0.5;entryY=0;entryDx=0;entryDy=0;labelBackgroundColor=default;strokeColor=default;fontFamily=Helvetica;fontSize=11;fontColor=default;endArrow=none;endFill=0;" parent="1" source="KDYq-KStEFV5s4hPV7sc-1" target="KDYq-KStEFV5s4hPV7sc-5" edge="1">
                    <mxGeometry relative="1" as="geometry"/>
                </mxCell>
                <mxCell id="5" style="edgeStyle=none;shape=connector;rounded=1;html=1;exitX=0.5;exitY=1;exitDx=0;exitDy=0;entryX=0.5;entryY=0;entryDx=0;entryDy=0;labelBackgroundColor=default;strokeColor=default;fontFamily=Helvetica;fontSize=11;fontColor=default;endArrow=none;endFill=0;" parent="1" source="KDYq-KStEFV5s4hPV7sc-1" target="KDYq-KStEFV5s4hPV7sc-45" edge="1">
                    <mxGeometry relative="1" as="geometry"/>
                </mxCell>
                <mxCell id="6" style="edgeStyle=none;shape=connector;rounded=1;html=1;exitX=0.5;exitY=1;exitDx=0;exitDy=0;labelBackgroundColor=default;strokeColor=default;fontFamily=Helvetica;fontSize=11;fontColor=default;endArrow=none;endFill=0;entryX=0.5;entryY=0;entryDx=0;entryDy=0;" parent="1" source="KDYq-KStEFV5s4hPV7sc-1" target="KDYq-KStEFV5s4hPV7sc-7" edge="1">
                    <mxGeometry relative="1" as="geometry">
                        <mxPoint x="-760" y="250" as="targetPoint"/>
                    </mxGeometry>
                </mxCell>
                <mxCell id="7" style="edgeStyle=none;shape=connector;rounded=1;html=1;exitX=0.5;exitY=1;exitDx=0;exitDy=0;labelBackgroundColor=default;strokeColor=default;fontFamily=Helvetica;fontSize=11;fontColor=default;endArrow=none;endFill=0;entryX=0.5;entryY=0;entryDx=0;entryDy=0;" parent="1" source="KDYq-KStEFV5s4hPV7sc-1" target="KDYq-KStEFV5s4hPV7sc-2" edge="1">
                    <mxGeometry relative="1" as="geometry">
                        <mxPoint x="-2840" y="260" as="targetPoint"/>
                    </mxGeometry>
                </mxCell>
                <mxCell id="8" style="edgeStyle=none;shape=connector;rounded=1;html=1;exitX=0.5;exitY=1;exitDx=0;exitDy=0;labelBackgroundColor=default;strokeColor=default;fontFamily=Helvetica;fontSize=11;fontColor=default;endArrow=none;endFill=0;entryX=0.5;entryY=0;entryDx=0;entryDy=0;" parent="1" source="KDYq-KStEFV5s4hPV7sc-1" target="KDYq-KStEFV5s4hPV7sc-6" edge="1">
                    <mxGeometry relative="1" as="geometry">
                        <mxPoint x="-3270" y="250" as="targetPoint"/>
                    </mxGeometry>
                </mxCell>
                <mxCell id="KDYq-KStEFV5s4hPV7sc-1" value="VM3DIR_macska-menhely" style="ellipse;whiteSpace=wrap;html=1;" parent="1" vertex="1">
                    <mxGeometry x="-80" y="40" width="120" height="80" as="geometry"/>
                </mxCell>
                <mxCell id="KDYq-KStEFV5s4hPV7sc-27" style="rounded=0;orthogonalLoop=1;jettySize=auto;html=1;exitX=0;exitY=0.5;exitDx=0;exitDy=0;entryX=1;entryY=0.5;entryDx=0;entryDy=0;endArrow=none;endFill=0;" parent="1" source="KDYq-KStEFV5s4hPV7sc-2" target="KDYq-KStEFV5s4hPV7sc-9" edge="1">
                    <mxGeometry relative="1" as="geometry"/>
                </mxCell>
                <mxCell id="KDYq-KStEFV5s4hPV7sc-36" value="" style="shape=connector;rounded=0;orthogonalLoop=1;jettySize=auto;html=1;strokeColor=default;align=center;verticalAlign=middle;fontFamily=Helvetica;fontSize=11;fontColor=default;labelBackgroundColor=default;endArrow=none;endFill=0;" parent="1" source="KDYq-KStEFV5s4hPV7sc-2" target="KDYq-KStEFV5s4hPV7sc-16" edge="1">
                    <mxGeometry relative="1" as="geometry"/>
                </mxCell>
                <mxCell id="KDYq-KStEFV5s4hPV7sc-113" style="edgeStyle=none;shape=connector;rounded=0;orthogonalLoop=1;jettySize=auto;html=1;exitX=0.5;exitY=1;exitDx=0;exitDy=0;entryX=0.5;entryY=0;entryDx=0;entryDy=0;strokeColor=default;align=center;verticalAlign=middle;fontFamily=Helvetica;fontSize=11;fontColor=default;labelBackgroundColor=default;endArrow=none;endFill=0;" parent="1" source="KDYq-KStEFV5s4hPV7sc-2" target="KDYq-KStEFV5s4hPV7sc-109" edge="1">
                    <mxGeometry relative="1" as="geometry">
                        <mxPoint x="465" y="510" as="sourcePoint"/>
                    </mxGeometry>
                </mxCell>
                <mxCell id="KDYq-KStEFV5s4hPV7sc-114" style="edgeStyle=none;shape=connector;rounded=0;orthogonalLoop=1;jettySize=auto;html=1;exitX=0.5;exitY=1;exitDx=0;exitDy=0;entryX=0.5;entryY=0;entryDx=0;entryDy=0;strokeColor=default;align=center;verticalAlign=middle;fontFamily=Helvetica;fontSize=11;fontColor=default;labelBackgroundColor=default;endArrow=none;endFill=0;" parent="1" source="KDYq-KStEFV5s4hPV7sc-2" target="KDYq-KStEFV5s4hPV7sc-106" edge="1">
                    <mxGeometry relative="1" as="geometry">
                        <mxPoint x="465" y="510" as="sourcePoint"/>
                    </mxGeometry>
                </mxCell>
                <mxCell id="KDYq-KStEFV5s4hPV7sc-115" style="edgeStyle=none;shape=connector;rounded=0;orthogonalLoop=1;jettySize=auto;html=1;exitX=0.5;exitY=1;exitDx=0;exitDy=0;entryX=0.5;entryY=0;entryDx=0;entryDy=0;strokeColor=default;align=center;verticalAlign=middle;fontFamily=Helvetica;fontSize=11;fontColor=default;labelBackgroundColor=default;endArrow=none;endFill=0;" parent="1" source="KDYq-KStEFV5s4hPV7sc-2" target="KDYq-KStEFV5s4hPV7sc-105" edge="1">
                    <mxGeometry relative="1" as="geometry">
                        <mxPoint x="465" y="510" as="sourcePoint"/>
                    </mxGeometry>
                </mxCell>
                <mxCell id="KDYq-KStEFV5s4hPV7sc-116" style="edgeStyle=none;shape=connector;rounded=0;orthogonalLoop=1;jettySize=auto;html=1;exitX=0.5;exitY=1;exitDx=0;exitDy=0;entryX=0.5;entryY=0;entryDx=0;entryDy=0;strokeColor=default;align=center;verticalAlign=middle;fontFamily=Helvetica;fontSize=11;fontColor=default;labelBackgroundColor=default;endArrow=none;endFill=0;" parent="1" source="KDYq-KStEFV5s4hPV7sc-2" target="KDYq-KStEFV5s4hPV7sc-104" edge="1">
                    <mxGeometry relative="1" as="geometry">
                        <mxPoint x="465" y="510" as="sourcePoint"/>
                    </mxGeometry>
                </mxCell>
                <mxCell id="KDYq-KStEFV5s4hPV7sc-117" style="edgeStyle=none;shape=connector;rounded=0;orthogonalLoop=1;jettySize=auto;html=1;exitX=0.5;exitY=1;exitDx=0;exitDy=0;entryX=0.5;entryY=0;entryDx=0;entryDy=0;strokeColor=default;align=center;verticalAlign=middle;fontFamily=Helvetica;fontSize=11;fontColor=default;labelBackgroundColor=default;endArrow=none;endFill=0;" parent="1" source="KDYq-KStEFV5s4hPV7sc-2" target="KDYq-KStEFV5s4hPV7sc-108" edge="1">
                    <mxGeometry relative="1" as="geometry">
                        <mxPoint x="465" y="510" as="sourcePoint"/>
                    </mxGeometry>
                </mxCell>
                <mxCell id="KDYq-KStEFV5s4hPV7sc-119" style="edgeStyle=none;shape=connector;rounded=0;orthogonalLoop=1;jettySize=auto;html=1;entryX=0.5;entryY=0;entryDx=0;entryDy=0;strokeColor=default;align=center;verticalAlign=middle;fontFamily=Helvetica;fontSize=11;fontColor=default;labelBackgroundColor=default;endArrow=none;endFill=0;exitX=0.5;exitY=1;exitDx=0;exitDy=0;" parent="1" source="KDYq-KStEFV5s4hPV7sc-2" target="KDYq-KStEFV5s4hPV7sc-110" edge="1">
                    <mxGeometry relative="1" as="geometry">
                        <mxPoint x="465" y="510" as="sourcePoint"/>
                    </mxGeometry>
                </mxCell>
                <mxCell id="KDYq-KStEFV5s4hPV7sc-2" value="&lt;span style=&quot;color: rgba(0, 0, 0, 0); font-family: monospace; font-size: 0px; text-align: start; text-wrap-mode: nowrap;&quot;&gt;%3CmxGraphModel%3E%3Croot%3E%3CmxCell%20id%3D%220%22%2F%3E%3CmxCell%20id%3D%221%22%20parent%3D%220%22%2F%3E%3CmxCell%20id%3D%222%22%20value%3D%22%22%20style%3D%22ellipse%3BwhiteSpace%3Dwrap%3Bhtml%3D1%3BfontFamily%3DHelvetica%3BfontSize%3D11%3BfontColor%3Ddefault%3BlabelBackgroundColor%3Ddefault%3B%22%20vertex%3D%221%22%20parent%3D%221%22%3E%3CmxGeometry%20x%3D%22480%22%20y%3D%22320%22%20width%3D%22120%22%20height%3D%2280%22%20as%3D%22geometry%22%2F%3E%3C%2FmxCell%3E%3C%2Froot%3E%3C%2FmxGraphModel%3E&lt;/span&gt;&lt;span style=&quot;color: rgba(0, 0, 0, 0); font-family: monospace; font-size: 0px; text-align: start; text-wrap-mode: nowrap;&quot;&gt;%3CmxGraphModel%3E%3Croot%3E%3CmxCell%20id%3D%220%22%2F%3E%3CmxCell%20id%3D%221%22%20parent%3D%220%22%2F%3E%3CmxCell%20id%3D%222%22%20value%3D%22%22%20style%3D%22ellipse%3BwhiteSpace%3Dwrap%3Bhtml%3D1%3BfontFamily%3DHelvetica%3BfontSize%3D11%3BfontColor%3Ddefault%3BlabelBackgroundColor%3Ddefault%3B%22%20vertex%3D%221%22%20parent%3D%221%22%3E%3CmxGeometry%20x%3D%22480%22%20y%3D%22320%22%20width%3D%22120%22%20height%3D%2280%22%20as%3D%22geometry%22%2F%3E%3C%2FmxCell%3E%3C%2Froot%3E%3C%2FmxGraphModel%3E&lt;/span&gt;" style="ellipse;whiteSpace=wrap;html=1;" parent="1" vertex="1">
                    <mxGeometry x="405" y="320" width="120" height="80" as="geometry"/>
                </mxCell>
                <mxCell id="KDYq-KStEFV5s4hPV7sc-59" style="shape=connector;rounded=0;orthogonalLoop=1;jettySize=auto;html=1;exitX=0.5;exitY=1;exitDx=0;exitDy=0;entryX=0.5;entryY=0;entryDx=0;entryDy=0;strokeColor=default;align=center;verticalAlign=middle;fontFamily=Helvetica;fontSize=11;fontColor=default;labelBackgroundColor=default;endArrow=none;endFill=0;" parent="1" source="KDYq-KStEFV5s4hPV7sc-4" target="KDYq-KStEFV5s4hPV7sc-52" edge="1">
                    <mxGeometry relative="1" as="geometry">
                        <mxPoint x="1550" y="530" as="sourcePoint"/>
                    </mxGeometry>
                </mxCell>
                <mxCell id="KDYq-KStEFV5s4hPV7sc-60" style="edgeStyle=none;shape=connector;rounded=0;orthogonalLoop=1;jettySize=auto;html=1;exitX=0.5;exitY=1;exitDx=0;exitDy=0;entryX=0.5;entryY=0;entryDx=0;entryDy=0;strokeColor=default;align=center;verticalAlign=middle;fontFamily=Helvetica;fontSize=11;fontColor=default;labelBackgroundColor=default;endArrow=none;endFill=0;" parent="1" source="KDYq-KStEFV5s4hPV7sc-4" target="KDYq-KStEFV5s4hPV7sc-54" edge="1">
                    <mxGeometry relative="1" as="geometry">
                        <mxPoint x="1550" y="530" as="sourcePoint"/>
                    </mxGeometry>
                </mxCell>
                <mxCell id="KDYq-KStEFV5s4hPV7sc-61" style="edgeStyle=none;shape=connector;rounded=0;orthogonalLoop=1;jettySize=auto;html=1;exitX=0.5;exitY=1;exitDx=0;exitDy=0;entryX=0.5;entryY=0;entryDx=0;entryDy=0;strokeColor=default;align=center;verticalAlign=middle;fontFamily=Helvetica;fontSize=11;fontColor=default;labelBackgroundColor=default;endArrow=none;endFill=0;" parent="1" source="KDYq-KStEFV5s4hPV7sc-4" target="KDYq-KStEFV5s4hPV7sc-58" edge="1">
                    <mxGeometry relative="1" as="geometry">
                        <mxPoint x="1550" y="530" as="sourcePoint"/>
                    </mxGeometry>
                </mxCell>
                <mxCell id="KDYq-KStEFV5s4hPV7sc-62" style="edgeStyle=none;shape=connector;rounded=0;orthogonalLoop=1;jettySize=auto;html=1;exitX=0.5;exitY=1;exitDx=0;exitDy=0;entryX=0.5;entryY=0;entryDx=0;entryDy=0;strokeColor=default;align=center;verticalAlign=middle;fontFamily=Helvetica;fontSize=11;fontColor=default;labelBackgroundColor=default;endArrow=none;endFill=0;" parent="1" source="KDYq-KStEFV5s4hPV7sc-4" target="KDYq-KStEFV5s4hPV7sc-51" edge="1">
                    <mxGeometry relative="1" as="geometry">
                        <mxPoint x="1550" y="530" as="sourcePoint"/>
                    </mxGeometry>
                </mxCell>
                <mxCell id="KDYq-KStEFV5s4hPV7sc-63" style="edgeStyle=none;shape=connector;rounded=0;orthogonalLoop=1;jettySize=auto;html=1;entryX=0.5;entryY=0;entryDx=0;entryDy=0;strokeColor=default;align=center;verticalAlign=middle;fontFamily=Helvetica;fontSize=11;fontColor=default;labelBackgroundColor=default;endArrow=none;endFill=0;" parent="1" target="KDYq-KStEFV5s4hPV7sc-57" edge="1">
                    <mxGeometry relative="1" as="geometry">
                        <mxPoint x="1550" y="400" as="sourcePoint"/>
                    </mxGeometry>
                </mxCell>
                <mxCell id="KDYq-KStEFV5s4hPV7sc-65" style="edgeStyle=none;shape=connector;rounded=0;orthogonalLoop=1;jettySize=auto;html=1;exitX=0.5;exitY=1;exitDx=0;exitDy=0;entryX=0.5;entryY=0;entryDx=0;entryDy=0;strokeColor=default;align=center;verticalAlign=middle;fontFamily=Helvetica;fontSize=11;fontColor=default;labelBackgroundColor=default;endArrow=none;endFill=0;" parent="1" source="KDYq-KStEFV5s4hPV7sc-4" target="KDYq-KStEFV5s4hPV7sc-56" edge="1">
                    <mxGeometry relative="1" as="geometry">
                        <mxPoint x="1550" y="530" as="sourcePoint"/>
                    </mxGeometry>
                </mxCell>
                <mxCell id="KDYq-KStEFV5s4hPV7sc-4" value="&lt;span style=&quot;color: rgba(237, 237, 237, 0); font-family: monospace; font-size: 0px; text-align: start; text-wrap-mode: nowrap;&quot;&gt;%3CmxGraphModel%3E%3Croot%3E%3CmxCell%20id%3D%220%22%2F%3E%3CmxCell%20id%3D%221%22%20parent%3D%220%22%2F%3E%3CmxCell%20id%3D%222%22%20value%3D%22%22%20style%3D%22ellipse%3BwhiteSpace%3Dwrap%3Bhtml%3D1%3BfontFamily%3DHelvetica%3BfontSize%3D11%3BfontColor%3Ddefault%3BlabelBackgroundColor%3Ddefault%3B%22%20vertex%3D%221%22%20parent%3D%221%22%3E%3CmxGeometry%20x%3D%22-460%22%20y%3D%22280%22%20width%3D%22120%22%20height%3D%2280%22%20as%3D%22geometry%22%2F%3E%3C%2FmxCell%3E%3C%2Froot%3E%3C%2FmxGraphModel%3E&lt;/span&gt;" style="ellipse;whiteSpace=wrap;html=1;" parent="1" vertex="1">
                    <mxGeometry x="1490" y="320" width="120" height="80" as="geometry"/>
                </mxCell>
                <mxCell id="KDYq-KStEFV5s4hPV7sc-32" value="" style="edgeStyle=orthogonalEdgeStyle;rounded=0;orthogonalLoop=1;jettySize=auto;html=1;endArrow=none;endFill=0;" parent="1" source="KDYq-KStEFV5s4hPV7sc-5" target="KDYq-KStEFV5s4hPV7sc-12" edge="1">
                    <mxGeometry relative="1" as="geometry"/>
                </mxCell>
                <mxCell id="KDYq-KStEFV5s4hPV7sc-126" style="edgeStyle=none;shape=connector;rounded=0;orthogonalLoop=1;jettySize=auto;html=1;exitX=0.5;exitY=1;exitDx=0;exitDy=0;entryX=0.5;entryY=0;entryDx=0;entryDy=0;strokeColor=default;align=center;verticalAlign=middle;fontFamily=Helvetica;fontSize=11;fontColor=default;labelBackgroundColor=default;endArrow=none;endFill=0;" parent="1" source="KDYq-KStEFV5s4hPV7sc-5" target="KDYq-KStEFV5s4hPV7sc-120" edge="1">
                    <mxGeometry relative="1" as="geometry"/>
                </mxCell>
                <mxCell id="KDYq-KStEFV5s4hPV7sc-127" style="edgeStyle=none;shape=connector;rounded=0;orthogonalLoop=1;jettySize=auto;html=1;exitX=0.5;exitY=1;exitDx=0;exitDy=0;entryX=0.5;entryY=0;entryDx=0;entryDy=0;strokeColor=default;align=center;verticalAlign=middle;fontFamily=Helvetica;fontSize=11;fontColor=default;labelBackgroundColor=default;endArrow=none;endFill=0;" parent="1" source="KDYq-KStEFV5s4hPV7sc-5" target="KDYq-KStEFV5s4hPV7sc-121" edge="1">
                    <mxGeometry relative="1" as="geometry"/>
                </mxCell>
                <mxCell id="KDYq-KStEFV5s4hPV7sc-128" style="edgeStyle=none;shape=connector;rounded=0;orthogonalLoop=1;jettySize=auto;html=1;exitX=0.5;exitY=1;exitDx=0;exitDy=0;entryX=0.5;entryY=0;entryDx=0;entryDy=0;strokeColor=default;align=center;verticalAlign=middle;fontFamily=Helvetica;fontSize=11;fontColor=default;labelBackgroundColor=default;endArrow=none;endFill=0;" parent="1" source="KDYq-KStEFV5s4hPV7sc-5" target="KDYq-KStEFV5s4hPV7sc-123" edge="1">
                    <mxGeometry relative="1" as="geometry"/>
                </mxCell>
                <mxCell id="KDYq-KStEFV5s4hPV7sc-129" style="edgeStyle=none;shape=connector;rounded=0;orthogonalLoop=1;jettySize=auto;html=1;exitX=0.5;exitY=1;exitDx=0;exitDy=0;entryX=0.5;entryY=0;entryDx=0;entryDy=0;strokeColor=default;align=center;verticalAlign=middle;fontFamily=Helvetica;fontSize=11;fontColor=default;labelBackgroundColor=default;endArrow=none;endFill=0;" parent="1" source="KDYq-KStEFV5s4hPV7sc-5" target="KDYq-KStEFV5s4hPV7sc-124" edge="1">
                    <mxGeometry relative="1" as="geometry"/>
                </mxCell>
                <mxCell id="KDYq-KStEFV5s4hPV7sc-130" style="edgeStyle=none;shape=connector;rounded=0;orthogonalLoop=1;jettySize=auto;html=1;exitX=0.5;exitY=1;exitDx=0;exitDy=0;entryX=0.5;entryY=0;entryDx=0;entryDy=0;strokeColor=default;align=center;verticalAlign=middle;fontFamily=Helvetica;fontSize=11;fontColor=default;labelBackgroundColor=default;endArrow=none;endFill=0;" parent="1" source="KDYq-KStEFV5s4hPV7sc-5" target="KDYq-KStEFV5s4hPV7sc-125" edge="1">
                    <mxGeometry relative="1" as="geometry"/>
                </mxCell>
                <mxCell id="KDYq-KStEFV5s4hPV7sc-5" value="Allatorvos" style="ellipse;whiteSpace=wrap;html=1;" parent="1" vertex="1">
                    <mxGeometry x="2480" y="320" width="120" height="80" as="geometry"/>
                </mxCell>
                <mxCell id="KDYq-KStEFV5s4hPV7sc-33" value="" style="edgeStyle=orthogonalEdgeStyle;rounded=0;orthogonalLoop=1;jettySize=auto;html=1;endArrow=none;endFill=0;" parent="1" source="KDYq-KStEFV5s4hPV7sc-6" target="KDYq-KStEFV5s4hPV7sc-13" edge="1">
                    <mxGeometry relative="1" as="geometry"/>
                </mxCell>
                <mxCell id="KDYq-KStEFV5s4hPV7sc-37" value="" style="shape=connector;rounded=0;orthogonalLoop=1;jettySize=auto;html=1;strokeColor=default;align=center;verticalAlign=middle;fontFamily=Helvetica;fontSize=11;fontColor=default;labelBackgroundColor=default;endArrow=none;endFill=0;entryX=0;entryY=0.5;entryDx=0;entryDy=0;" parent="1" source="KDYq-KStEFV5s4hPV7sc-6" target="KDYq-KStEFV5s4hPV7sc-23" edge="1">
                    <mxGeometry relative="1" as="geometry"/>
                </mxCell>
                <mxCell id="KDYq-KStEFV5s4hPV7sc-39" style="shape=connector;rounded=0;orthogonalLoop=1;jettySize=auto;html=1;exitX=1;exitY=0.5;exitDx=0;exitDy=0;entryX=0;entryY=0.5;entryDx=0;entryDy=0;strokeColor=default;align=center;verticalAlign=middle;fontFamily=Helvetica;fontSize=11;fontColor=default;labelBackgroundColor=default;endArrow=none;endFill=0;" parent="1" source="KDYq-KStEFV5s4hPV7sc-6" target="KDYq-KStEFV5s4hPV7sc-20" edge="1">
                    <mxGeometry relative="1" as="geometry"/>
                </mxCell>
                <mxCell id="KDYq-KStEFV5s4hPV7sc-136" style="edgeStyle=none;shape=connector;rounded=0;orthogonalLoop=1;jettySize=auto;html=1;exitX=0.5;exitY=1;exitDx=0;exitDy=0;entryX=0.5;entryY=0;entryDx=0;entryDy=0;strokeColor=default;align=center;verticalAlign=middle;fontFamily=Helvetica;fontSize=11;fontColor=default;labelBackgroundColor=default;endArrow=none;endFill=0;" parent="1" source="KDYq-KStEFV5s4hPV7sc-6" target="KDYq-KStEFV5s4hPV7sc-131" edge="1">
                    <mxGeometry relative="1" as="geometry"/>
                </mxCell>
                <mxCell id="KDYq-KStEFV5s4hPV7sc-137" style="edgeStyle=none;shape=connector;rounded=0;orthogonalLoop=1;jettySize=auto;html=1;exitX=0.5;exitY=1;exitDx=0;exitDy=0;entryX=0.5;entryY=0;entryDx=0;entryDy=0;strokeColor=default;align=center;verticalAlign=middle;fontFamily=Helvetica;fontSize=11;fontColor=default;labelBackgroundColor=default;endArrow=none;endFill=0;" parent="1" source="KDYq-KStEFV5s4hPV7sc-6" target="KDYq-KStEFV5s4hPV7sc-132" edge="1">
                    <mxGeometry relative="1" as="geometry"/>
                </mxCell>
                <mxCell id="KDYq-KStEFV5s4hPV7sc-138" style="edgeStyle=none;shape=connector;rounded=0;orthogonalLoop=1;jettySize=auto;html=1;exitX=0.5;exitY=1;exitDx=0;exitDy=0;entryX=0.5;entryY=0;entryDx=0;entryDy=0;strokeColor=default;align=center;verticalAlign=middle;fontFamily=Helvetica;fontSize=11;fontColor=default;labelBackgroundColor=default;endArrow=none;endFill=0;" parent="1" source="KDYq-KStEFV5s4hPV7sc-6" target="KDYq-KStEFV5s4hPV7sc-133" edge="1">
                    <mxGeometry relative="1" as="geometry"/>
                </mxCell>
                <mxCell id="KDYq-KStEFV5s4hPV7sc-139" style="edgeStyle=none;shape=connector;rounded=0;orthogonalLoop=1;jettySize=auto;html=1;exitX=0.5;exitY=1;exitDx=0;exitDy=0;entryX=0.5;entryY=0;entryDx=0;entryDy=0;strokeColor=default;align=center;verticalAlign=middle;fontFamily=Helvetica;fontSize=11;fontColor=default;labelBackgroundColor=default;endArrow=none;endFill=0;" parent="1" source="KDYq-KStEFV5s4hPV7sc-6" target="KDYq-KStEFV5s4hPV7sc-134" edge="1">
                    <mxGeometry relative="1" as="geometry"/>
                </mxCell>
                <mxCell id="KDYq-KStEFV5s4hPV7sc-140" style="edgeStyle=none;shape=connector;rounded=0;orthogonalLoop=1;jettySize=auto;html=1;exitX=0.5;exitY=1;exitDx=0;exitDy=0;entryX=0.5;entryY=0;entryDx=0;entryDy=0;strokeColor=default;align=center;verticalAlign=middle;fontFamily=Helvetica;fontSize=11;fontColor=default;labelBackgroundColor=default;endArrow=none;endFill=0;" parent="1" source="KDYq-KStEFV5s4hPV7sc-6" target="KDYq-KStEFV5s4hPV7sc-135" edge="1">
                    <mxGeometry relative="1" as="geometry"/>
                </mxCell>
                <mxCell id="KDYq-KStEFV5s4hPV7sc-6" value="Egeszsegugyi&lt;div&gt;karton&lt;/div&gt;" style="ellipse;whiteSpace=wrap;html=1;" parent="1" vertex="1">
                    <mxGeometry x="-2440" y="320" width="120" height="80" as="geometry"/>
                </mxCell>
                <mxCell id="KDYq-KStEFV5s4hPV7sc-34" style="edgeStyle=orthogonalEdgeStyle;rounded=0;orthogonalLoop=1;jettySize=auto;html=1;exitX=0;exitY=0.5;exitDx=0;exitDy=0;entryX=1;entryY=0.5;entryDx=0;entryDy=0;endArrow=none;endFill=0;strokeColor=default;" parent="1" source="KDYq-KStEFV5s4hPV7sc-7" target="KDYq-KStEFV5s4hPV7sc-14" edge="1">
                    <mxGeometry relative="1" as="geometry">
                        <mxPoint x="-1644.9999999999764" y="360" as="sourcePoint"/>
                    </mxGeometry>
                </mxCell>
                <mxCell id="KDYq-KStEFV5s4hPV7sc-42" style="shape=connector;rounded=0;orthogonalLoop=1;jettySize=auto;html=1;exitX=1;exitY=0.5;exitDx=0;exitDy=0;entryX=0;entryY=0.5;entryDx=0;entryDy=0;strokeColor=default;align=center;verticalAlign=middle;fontFamily=Helvetica;fontSize=11;fontColor=default;labelBackgroundColor=default;endArrow=none;endFill=0;" parent="1" source="KDYq-KStEFV5s4hPV7sc-7" target="KDYq-KStEFV5s4hPV7sc-21" edge="1">
                    <mxGeometry relative="1" as="geometry"/>
                </mxCell>
                <mxCell id="KDYq-KStEFV5s4hPV7sc-182" style="edgeStyle=none;shape=connector;rounded=0;orthogonalLoop=1;jettySize=auto;html=1;exitX=0.5;exitY=1;exitDx=0;exitDy=0;entryX=0.5;entryY=0;entryDx=0;entryDy=0;strokeColor=default;align=center;verticalAlign=middle;fontFamily=Helvetica;fontSize=11;fontColor=default;labelBackgroundColor=default;endArrow=none;endFill=0;" parent="1" source="KDYq-KStEFV5s4hPV7sc-7" target="KDYq-KStEFV5s4hPV7sc-180" edge="1">
                    <mxGeometry relative="1" as="geometry"/>
                </mxCell>
                <mxCell id="KDYq-KStEFV5s4hPV7sc-183" style="edgeStyle=none;shape=connector;rounded=0;orthogonalLoop=1;jettySize=auto;html=1;exitX=0.5;exitY=1;exitDx=0;exitDy=0;entryX=0.5;entryY=0;entryDx=0;entryDy=0;strokeColor=default;align=center;verticalAlign=middle;fontFamily=Helvetica;fontSize=11;fontColor=default;labelBackgroundColor=default;endArrow=none;endFill=0;" parent="1" source="KDYq-KStEFV5s4hPV7sc-7" target="KDYq-KStEFV5s4hPV7sc-181" edge="1">
                    <mxGeometry relative="1" as="geometry"/>
                </mxCell>
                <mxCell id="KDYq-KStEFV5s4hPV7sc-184" style="edgeStyle=none;shape=connector;rounded=0;orthogonalLoop=1;jettySize=auto;html=1;exitX=0.5;exitY=1;exitDx=0;exitDy=0;entryX=0.5;entryY=0;entryDx=0;entryDy=0;strokeColor=default;align=center;verticalAlign=middle;fontFamily=Helvetica;fontSize=11;fontColor=default;labelBackgroundColor=default;endArrow=none;endFill=0;" parent="1" source="KDYq-KStEFV5s4hPV7sc-7" target="KDYq-KStEFV5s4hPV7sc-179" edge="1">
                    <mxGeometry relative="1" as="geometry"/>
                </mxCell>
                <mxCell id="KDYq-KStEFV5s4hPV7sc-185" style="edgeStyle=none;shape=connector;rounded=0;orthogonalLoop=1;jettySize=auto;html=1;exitX=0.5;exitY=1;exitDx=0;exitDy=0;entryX=0.5;entryY=0;entryDx=0;entryDy=0;strokeColor=default;align=center;verticalAlign=middle;fontFamily=Helvetica;fontSize=11;fontColor=default;labelBackgroundColor=default;endArrow=none;endFill=0;" parent="1" source="KDYq-KStEFV5s4hPV7sc-7" target="KDYq-KStEFV5s4hPV7sc-178" edge="1">
                    <mxGeometry relative="1" as="geometry"/>
                </mxCell>
                <mxCell id="KDYq-KStEFV5s4hPV7sc-7" value="Orokbefogadas" style="ellipse;whiteSpace=wrap;html=1;" parent="1" vertex="1">
                    <mxGeometry x="-1640" y="320" width="120" height="80" as="geometry"/>
                </mxCell>
                <mxCell id="KDYq-KStEFV5s4hPV7sc-9" value="&lt;u&gt;macska_id&lt;/u&gt;" style="rhombus;whiteSpace=wrap;html=1;" parent="1" vertex="1">
                    <mxGeometry x="280" y="320" width="80" height="80" as="geometry"/>
                </mxCell>
                <mxCell id="KDYq-KStEFV5s4hPV7sc-11" value="&lt;u&gt;alkalmazott&lt;/u&gt;&lt;div&gt;&lt;u&gt;_id&lt;/u&gt;&lt;/div&gt;" style="rhombus;whiteSpace=wrap;html=1;" parent="1" vertex="1">
                    <mxGeometry x="1380" y="320" width="80" height="80" as="geometry"/>
                </mxCell>
                <mxCell id="KDYq-KStEFV5s4hPV7sc-12" value="&lt;u&gt;allatorvos_id&lt;/u&gt;" style="rhombus;whiteSpace=wrap;html=1;" parent="1" vertex="1">
                    <mxGeometry x="2370" y="320" width="80" height="80" as="geometry"/>
                </mxCell>
                <mxCell id="KDYq-KStEFV5s4hPV7sc-13" value="&lt;u&gt;karton_id&lt;/u&gt;" style="rhombus;whiteSpace=wrap;html=1;" parent="1" vertex="1">
                    <mxGeometry x="-2550" y="320" width="80" height="80" as="geometry"/>
                </mxCell>
                <mxCell id="KDYq-KStEFV5s4hPV7sc-14" value="&lt;u&gt;orokbe-fogadas_id&lt;/u&gt;" style="rhombus;whiteSpace=wrap;html=1;" parent="1" vertex="1">
                    <mxGeometry x="-1760" y="320" width="80" height="80" as="geometry"/>
                </mxCell>
                <mxCell id="36" style="edgeStyle=orthogonalEdgeStyle;shape=connector;rounded=1;html=1;exitX=1;exitY=0.5;exitDx=0;exitDy=0;entryX=0;entryY=0.5;entryDx=0;entryDy=0;labelBackgroundColor=default;strokeColor=default;fontFamily=Helvetica;fontSize=11;fontColor=default;endArrow=classic;endFill=1;dashed=1;" edge="1" parent="1" source="KDYq-KStEFV5s4hPV7sc-16" target="KDYq-KStEFV5s4hPV7sc-11">
                    <mxGeometry relative="1" as="geometry"/>
                </mxCell>
                <mxCell id="KDYq-KStEFV5s4hPV7sc-16" value="alkalmazott&lt;br&gt;_ref" style="rhombus;whiteSpace=wrap;html=1;" parent="1" vertex="1">
                    <mxGeometry x="560" y="320" width="80" height="80" as="geometry"/>
                </mxCell>
                <mxCell id="34" style="edgeStyle=orthogonalEdgeStyle;shape=connector;rounded=1;html=1;exitX=1;exitY=0.5;exitDx=0;exitDy=0;entryX=0;entryY=0.5;entryDx=0;entryDy=0;labelBackgroundColor=default;strokeColor=default;fontFamily=Helvetica;fontSize=11;fontColor=default;endArrow=classic;endFill=1;dashed=1;" edge="1" parent="1" source="KDYq-KStEFV5s4hPV7sc-20" target="KDYq-KStEFV5s4hPV7sc-12">
                    <mxGeometry relative="1" as="geometry">
                        <Array as="points">
                            <mxPoint x="-1960" y="450"/>
                            <mxPoint x="-1960" y="1080"/>
                            <mxPoint x="2120" y="1080"/>
                            <mxPoint x="2120" y="360"/>
                        </Array>
                    </mxGeometry>
                </mxCell>
                <mxCell id="KDYq-KStEFV5s4hPV7sc-20" value="allatorvos_ref" style="rhombus;whiteSpace=wrap;html=1;" parent="1" vertex="1">
                    <mxGeometry x="-2200" y="410" width="80" height="80" as="geometry"/>
                </mxCell>
                <mxCell id="39" style="edgeStyle=orthogonalEdgeStyle;shape=connector;rounded=1;html=1;exitX=1;exitY=0.5;exitDx=0;exitDy=0;entryX=0;entryY=0.5;entryDx=0;entryDy=0;labelBackgroundColor=default;strokeColor=default;fontFamily=Helvetica;fontSize=11;fontColor=default;endArrow=classic;endFill=1;dashed=1;" edge="1" parent="1" source="KDYq-KStEFV5s4hPV7sc-21" target="KDYq-KStEFV5s4hPV7sc-46">
                    <mxGeometry relative="1" as="geometry"/>
                </mxCell>
                <mxCell id="KDYq-KStEFV5s4hPV7sc-21" value="orokbefogado&lt;br&gt;_ref" style="rhombus;whiteSpace=wrap;html=1;" parent="1" vertex="1">
                    <mxGeometry x="-1440" y="320" width="80" height="80" as="geometry"/>
                </mxCell>
                <mxCell id="35" style="edgeStyle=orthogonalEdgeStyle;shape=connector;rounded=1;html=1;exitX=1;exitY=0.5;exitDx=0;exitDy=0;entryX=0;entryY=0.5;entryDx=0;entryDy=0;labelBackgroundColor=default;strokeColor=default;fontFamily=Helvetica;fontSize=11;fontColor=default;endArrow=classic;endFill=1;dashed=1;" edge="1" parent="1" source="KDYq-KStEFV5s4hPV7sc-23" target="KDYq-KStEFV5s4hPV7sc-9">
                    <mxGeometry relative="1" as="geometry">
                        <Array as="points">
                            <mxPoint x="-1920" y="360"/>
                            <mxPoint x="-1920" y="1040"/>
                            <mxPoint x="-40" y="1040"/>
                            <mxPoint x="-40" y="360"/>
                        </Array>
                    </mxGeometry>
                </mxCell>
                <mxCell id="KDYq-KStEFV5s4hPV7sc-23" value="macska_ref" style="rhombus;whiteSpace=wrap;html=1;" parent="1" vertex="1">
                    <mxGeometry x="-2200" y="320" width="80" height="80" as="geometry"/>
                </mxCell>
                <mxCell id="37" style="edgeStyle=orthogonalEdgeStyle;shape=connector;rounded=1;html=1;exitX=1;exitY=0.5;exitDx=0;exitDy=0;entryX=0.5;entryY=0;entryDx=0;entryDy=0;labelBackgroundColor=default;strokeColor=default;fontFamily=Helvetica;fontSize=11;fontColor=default;endArrow=classic;endFill=1;dashed=1;" edge="1" parent="1" source="KDYq-KStEFV5s4hPV7sc-24" target="KDYq-KStEFV5s4hPV7sc-9">
                    <mxGeometry relative="1" as="geometry">
                        <Array as="points">
                            <mxPoint x="-1240" y="450"/>
                            <mxPoint x="-1240" y="1000"/>
                            <mxPoint x="-80" y="1000"/>
                            <mxPoint x="-80" y="320"/>
                        </Array>
                    </mxGeometry>
                </mxCell>
                <mxCell id="KDYq-KStEFV5s4hPV7sc-24" value="macska_ref" style="rhombus;whiteSpace=wrap;html=1;" parent="1" vertex="1">
                    <mxGeometry x="-1440" y="410" width="80" height="80" as="geometry"/>
                </mxCell>
                <mxCell id="KDYq-KStEFV5s4hPV7sc-29" style="edgeStyle=orthogonalEdgeStyle;rounded=0;orthogonalLoop=1;jettySize=auto;html=1;exitX=0;exitY=0.5;exitDx=0;exitDy=0;entryX=1;entryY=0.5;entryDx=0;entryDy=0;endArrow=none;endFill=0;" parent="1" source="KDYq-KStEFV5s4hPV7sc-4" target="KDYq-KStEFV5s4hPV7sc-11" edge="1">
                    <mxGeometry relative="1" as="geometry"/>
                </mxCell>
                <mxCell id="KDYq-KStEFV5s4hPV7sc-40" style="shape=connector;rounded=0;orthogonalLoop=1;jettySize=auto;html=1;exitX=1;exitY=0.5;exitDx=0;exitDy=0;entryX=0;entryY=0.5;entryDx=0;entryDy=0;strokeColor=default;align=center;verticalAlign=middle;fontFamily=Helvetica;fontSize=11;fontColor=default;labelBackgroundColor=default;endArrow=none;endFill=0;" parent="1" source="KDYq-KStEFV5s4hPV7sc-7" target="KDYq-KStEFV5s4hPV7sc-24" edge="1">
                    <mxGeometry relative="1" as="geometry"/>
                </mxCell>
                <mxCell id="KDYq-KStEFV5s4hPV7sc-48" value="" style="edgeStyle=orthogonalEdgeStyle;shape=connector;rounded=0;orthogonalLoop=1;jettySize=auto;html=1;strokeColor=default;align=center;verticalAlign=middle;fontFamily=Helvetica;fontSize=11;fontColor=default;labelBackgroundColor=default;endArrow=none;endFill=0;" parent="1" source="KDYq-KStEFV5s4hPV7sc-45" target="KDYq-KStEFV5s4hPV7sc-46" edge="1">
                    <mxGeometry relative="1" as="geometry"/>
                </mxCell>
                <mxCell id="KDYq-KStEFV5s4hPV7sc-45" value="Orokbefogado" style="ellipse;whiteSpace=wrap;html=1;fontFamily=Helvetica;fontSize=11;fontColor=default;labelBackgroundColor=default;" parent="1" vertex="1">
                    <mxGeometry x="-635" y="320" width="120" height="80" as="geometry"/>
                </mxCell>
                <mxCell id="KDYq-KStEFV5s4hPV7sc-46" value="&lt;u&gt;orokbefogado&lt;/u&gt;&lt;div&gt;&lt;u&gt;_id&lt;/u&gt;&lt;/div&gt;" style="rhombus;whiteSpace=wrap;html=1;fontFamily=Helvetica;fontSize=11;fontColor=default;labelBackgroundColor=default;" parent="1" vertex="1">
                    <mxGeometry x="-755" y="320" width="80" height="80" as="geometry"/>
                </mxCell>
                <mxCell id="25" style="edgeStyle=none;shape=connector;rounded=1;html=1;exitX=0.5;exitY=1;exitDx=0;exitDy=0;entryX=0.5;entryY=0;entryDx=0;entryDy=0;labelBackgroundColor=default;strokeColor=default;fontFamily=Helvetica;fontSize=11;fontColor=default;endArrow=none;endFill=0;" edge="1" parent="1" source="KDYq-KStEFV5s4hPV7sc-51" target="20">
                    <mxGeometry relative="1" as="geometry"/>
                </mxCell>
                <mxCell id="26" style="edgeStyle=none;shape=connector;rounded=1;html=1;exitX=0.5;exitY=1;exitDx=0;exitDy=0;entryX=0.5;entryY=0;entryDx=0;entryDy=0;labelBackgroundColor=default;strokeColor=default;fontFamily=Helvetica;fontSize=11;fontColor=default;endArrow=none;endFill=0;" edge="1" parent="1" source="KDYq-KStEFV5s4hPV7sc-51" target="19">
                    <mxGeometry relative="1" as="geometry"/>
                </mxCell>
                <mxCell id="KDYq-KStEFV5s4hPV7sc-51" value="Teljes nev" style="ellipse;whiteSpace=wrap;html=1;fontFamily=Helvetica;fontSize=11;fontColor=default;labelBackgroundColor=default;" parent="1" vertex="1">
                    <mxGeometry x="1880" y="560" width="120" height="80" as="geometry"/>
                </mxCell>
                <mxCell id="KDYq-KStEFV5s4hPV7sc-84" style="edgeStyle=none;shape=connector;rounded=0;orthogonalLoop=1;jettySize=auto;html=1;exitX=0.5;exitY=1;exitDx=0;exitDy=0;entryX=0.5;entryY=0;entryDx=0;entryDy=0;strokeColor=default;align=center;verticalAlign=middle;fontFamily=Helvetica;fontSize=11;fontColor=default;labelBackgroundColor=default;endArrow=none;endFill=0;" parent="1" source="KDYq-KStEFV5s4hPV7sc-52" target="KDYq-KStEFV5s4hPV7sc-83" edge="1">
                    <mxGeometry relative="1" as="geometry"/>
                </mxCell>
                <mxCell id="KDYq-KStEFV5s4hPV7sc-85" style="edgeStyle=none;shape=connector;rounded=0;orthogonalLoop=1;jettySize=auto;html=1;exitX=0.5;exitY=1;exitDx=0;exitDy=0;entryX=0.5;entryY=0;entryDx=0;entryDy=0;strokeColor=default;align=center;verticalAlign=middle;fontFamily=Helvetica;fontSize=11;fontColor=default;labelBackgroundColor=default;endArrow=none;endFill=0;" parent="1" source="KDYq-KStEFV5s4hPV7sc-52" target="KDYq-KStEFV5s4hPV7sc-82" edge="1">
                    <mxGeometry relative="1" as="geometry"/>
                </mxCell>
                <mxCell id="KDYq-KStEFV5s4hPV7sc-86" style="edgeStyle=none;shape=connector;rounded=0;orthogonalLoop=1;jettySize=auto;html=1;exitX=0.5;exitY=1;exitDx=0;exitDy=0;entryX=0.5;entryY=0;entryDx=0;entryDy=0;strokeColor=default;align=center;verticalAlign=middle;fontFamily=Helvetica;fontSize=11;fontColor=default;labelBackgroundColor=default;endArrow=none;endFill=0;" parent="1" source="KDYq-KStEFV5s4hPV7sc-52" target="KDYq-KStEFV5s4hPV7sc-81" edge="1">
                    <mxGeometry relative="1" as="geometry"/>
                </mxCell>
                <mxCell id="KDYq-KStEFV5s4hPV7sc-87" style="edgeStyle=none;shape=connector;rounded=0;orthogonalLoop=1;jettySize=auto;html=1;exitX=0.5;exitY=1;exitDx=0;exitDy=0;entryX=0.5;entryY=0;entryDx=0;entryDy=0;strokeColor=default;align=center;verticalAlign=middle;fontFamily=Helvetica;fontSize=11;fontColor=default;labelBackgroundColor=default;endArrow=none;endFill=0;" parent="1" source="KDYq-KStEFV5s4hPV7sc-52" target="KDYq-KStEFV5s4hPV7sc-80" edge="1">
                    <mxGeometry relative="1" as="geometry"/>
                </mxCell>
                <mxCell id="KDYq-KStEFV5s4hPV7sc-52" value="Cim" style="ellipse;whiteSpace=wrap;html=1;fontFamily=Helvetica;fontSize=11;fontColor=default;labelBackgroundColor=default;" parent="1" vertex="1">
                    <mxGeometry x="1080" y="560" width="120" height="80" as="geometry"/>
                </mxCell>
                <mxCell id="KDYq-KStEFV5s4hPV7sc-54" value="Telefonszam" style="ellipse;whiteSpace=wrap;html=1;fontFamily=Helvetica;fontSize=11;fontColor=default;labelBackgroundColor=default;" parent="1" vertex="1">
                    <mxGeometry x="1395" y="560" width="120" height="80" as="geometry"/>
                </mxCell>
                <mxCell id="KDYq-KStEFV5s4hPV7sc-56" value="Beosztas" style="ellipse;whiteSpace=wrap;html=1;fontFamily=Helvetica;fontSize=11;fontColor=default;labelBackgroundColor=default;" parent="1" vertex="1">
                    <mxGeometry x="1715" y="560" width="120" height="80" as="geometry"/>
                </mxCell>
                <mxCell id="KDYq-KStEFV5s4hPV7sc-57" value="Belepes datuma" style="ellipse;whiteSpace=wrap;html=1;fontFamily=Helvetica;fontSize=11;fontColor=default;labelBackgroundColor=default;" parent="1" vertex="1">
                    <mxGeometry x="1555" y="560" width="120" height="80" as="geometry"/>
                </mxCell>
                <mxCell id="KDYq-KStEFV5s4hPV7sc-58" value="Fizetes" style="ellipse;whiteSpace=wrap;html=1;fontFamily=Helvetica;fontSize=11;fontColor=default;labelBackgroundColor=default;" parent="1" vertex="1">
                    <mxGeometry x="1235" y="560" width="120" height="80" as="geometry"/>
                </mxCell>
                <mxCell id="KDYq-KStEFV5s4hPV7sc-66" value="Alkalmazott" style="ellipse;whiteSpace=wrap;html=1;fontFamily=Helvetica;fontSize=11;fontColor=default;labelBackgroundColor=default;" parent="1" vertex="1">
                    <mxGeometry x="1495" y="325" width="110" height="70" as="geometry"/>
                </mxCell>
                <mxCell id="33" value="" style="edgeStyle=orthogonalEdgeStyle;shape=connector;rounded=1;html=1;labelBackgroundColor=default;strokeColor=default;fontFamily=Helvetica;fontSize=11;fontColor=default;endArrow=classic;endFill=1;" edge="1" parent="1" source="KDYq-KStEFV5s4hPV7sc-80" target="KDYq-KStEFV5s4hPV7sc-81">
                    <mxGeometry relative="1" as="geometry"/>
                </mxCell>
                <mxCell id="KDYq-KStEFV5s4hPV7sc-80" value="Hazszam" style="ellipse;whiteSpace=wrap;html=1;fontFamily=Helvetica;fontSize=11;fontColor=default;labelBackgroundColor=default;" parent="1" vertex="1">
                    <mxGeometry x="1320" y="800" width="120" height="80" as="geometry"/>
                </mxCell>
                <mxCell id="KDYq-KStEFV5s4hPV7sc-81" value="Utca" style="ellipse;whiteSpace=wrap;html=1;fontFamily=Helvetica;fontSize=11;fontColor=default;labelBackgroundColor=default;" parent="1" vertex="1">
                    <mxGeometry x="1160" y="800" width="120" height="80" as="geometry"/>
                </mxCell>
                <mxCell id="KDYq-KStEFV5s4hPV7sc-82" value="Varos" style="ellipse;whiteSpace=wrap;html=1;fontFamily=Helvetica;fontSize=11;fontColor=default;labelBackgroundColor=default;" parent="1" vertex="1">
                    <mxGeometry x="1000" y="800" width="120" height="80" as="geometry"/>
                </mxCell>
                <mxCell id="KDYq-KStEFV5s4hPV7sc-83" value="Iranyitoszam" style="ellipse;whiteSpace=wrap;html=1;fontFamily=Helvetica;fontSize=11;fontColor=default;labelBackgroundColor=default;" parent="1" vertex="1">
                    <mxGeometry x="840" y="800" width="120" height="80" as="geometry"/>
                </mxCell>
                <mxCell id="KDYq-KStEFV5s4hPV7sc-95" value="" style="edgeStyle=none;shape=connector;rounded=0;orthogonalLoop=1;jettySize=auto;html=1;strokeColor=default;align=center;verticalAlign=middle;fontFamily=Helvetica;fontSize=11;fontColor=default;labelBackgroundColor=default;endArrow=none;endFill=0;" parent="1" source="KDYq-KStEFV5s4hPV7sc-88" target="KDYq-KStEFV5s4hPV7sc-58" edge="1">
                    <mxGeometry relative="1" as="geometry"/>
                </mxCell>
                <mxCell id="KDYq-KStEFV5s4hPV7sc-88" value="" style="rounded=0;whiteSpace=wrap;html=1;fontFamily=Helvetica;fontSize=11;fontColor=default;labelBackgroundColor=default;direction=south;" parent="1" vertex="1">
                    <mxGeometry x="1280" y="680" width="30" height="50" as="geometry"/>
                </mxCell>
                <mxCell id="KDYq-KStEFV5s4hPV7sc-94" value="" style="edgeStyle=none;shape=connector;rounded=0;orthogonalLoop=1;jettySize=auto;html=1;strokeColor=default;align=center;verticalAlign=middle;fontFamily=Helvetica;fontSize=11;fontColor=default;labelBackgroundColor=default;endArrow=none;endFill=0;" parent="1" source="KDYq-KStEFV5s4hPV7sc-89" edge="1">
                    <mxGeometry relative="1" as="geometry">
                        <mxPoint x="1455" y="640" as="targetPoint"/>
                    </mxGeometry>
                </mxCell>
                <mxCell id="KDYq-KStEFV5s4hPV7sc-89" value="" style="rounded=0;whiteSpace=wrap;html=1;fontFamily=Helvetica;fontSize=11;fontColor=default;labelBackgroundColor=default;direction=south;" parent="1" vertex="1">
                    <mxGeometry x="1440" y="680" width="30" height="50" as="geometry"/>
                </mxCell>
                <mxCell id="KDYq-KStEFV5s4hPV7sc-93" value="" style="edgeStyle=none;shape=connector;rounded=0;orthogonalLoop=1;jettySize=auto;html=1;strokeColor=default;align=center;verticalAlign=middle;fontFamily=Helvetica;fontSize=11;fontColor=default;labelBackgroundColor=default;endArrow=none;endFill=0;" parent="1" source="KDYq-KStEFV5s4hPV7sc-90" target="KDYq-KStEFV5s4hPV7sc-57" edge="1">
                    <mxGeometry relative="1" as="geometry"/>
                </mxCell>
                <mxCell id="KDYq-KStEFV5s4hPV7sc-90" value="" style="rounded=0;whiteSpace=wrap;html=1;fontFamily=Helvetica;fontSize=11;fontColor=default;labelBackgroundColor=default;direction=south;" parent="1" vertex="1">
                    <mxGeometry x="1600" y="680" width="30" height="50" as="geometry"/>
                </mxCell>
                <mxCell id="KDYq-KStEFV5s4hPV7sc-92" value="" style="edgeStyle=none;shape=connector;rounded=0;orthogonalLoop=1;jettySize=auto;html=1;strokeColor=default;align=center;verticalAlign=middle;fontFamily=Helvetica;fontSize=11;fontColor=default;labelBackgroundColor=default;endArrow=none;endFill=0;" parent="1" source="KDYq-KStEFV5s4hPV7sc-91" target="KDYq-KStEFV5s4hPV7sc-56" edge="1">
                    <mxGeometry relative="1" as="geometry"/>
                </mxCell>
                <mxCell id="KDYq-KStEFV5s4hPV7sc-91" value="" style="rounded=0;whiteSpace=wrap;html=1;fontFamily=Helvetica;fontSize=11;fontColor=default;labelBackgroundColor=default;direction=south;" parent="1" vertex="1">
                    <mxGeometry x="1760" y="680" width="30" height="50" as="geometry"/>
                </mxCell>
                <mxCell id="KDYq-KStEFV5s4hPV7sc-103" value="" style="edgeStyle=none;shape=connector;rounded=0;orthogonalLoop=1;jettySize=auto;html=1;strokeColor=default;align=center;verticalAlign=middle;fontFamily=Helvetica;fontSize=11;fontColor=default;labelBackgroundColor=default;endArrow=none;endFill=0;" parent="1" source="KDYq-KStEFV5s4hPV7sc-96" target="KDYq-KStEFV5s4hPV7sc-83" edge="1">
                    <mxGeometry relative="1" as="geometry"/>
                </mxCell>
                <mxCell id="KDYq-KStEFV5s4hPV7sc-96" value="" style="rounded=0;whiteSpace=wrap;html=1;fontFamily=Helvetica;fontSize=11;fontColor=default;labelBackgroundColor=default;direction=south;" parent="1" vertex="1">
                    <mxGeometry x="885" y="920" width="30" height="50" as="geometry"/>
                </mxCell>
                <mxCell id="KDYq-KStEFV5s4hPV7sc-102" value="" style="edgeStyle=none;shape=connector;rounded=0;orthogonalLoop=1;jettySize=auto;html=1;strokeColor=default;align=center;verticalAlign=middle;fontFamily=Helvetica;fontSize=11;fontColor=default;labelBackgroundColor=default;endArrow=none;endFill=0;" parent="1" source="KDYq-KStEFV5s4hPV7sc-97" target="KDYq-KStEFV5s4hPV7sc-82" edge="1">
                    <mxGeometry relative="1" as="geometry"/>
                </mxCell>
                <mxCell id="KDYq-KStEFV5s4hPV7sc-97" value="" style="rounded=0;whiteSpace=wrap;html=1;fontFamily=Helvetica;fontSize=11;fontColor=default;labelBackgroundColor=default;direction=south;" parent="1" vertex="1">
                    <mxGeometry x="1045" y="920" width="30" height="50" as="geometry"/>
                </mxCell>
                <mxCell id="KDYq-KStEFV5s4hPV7sc-101" value="" style="edgeStyle=none;shape=connector;rounded=0;orthogonalLoop=1;jettySize=auto;html=1;strokeColor=default;align=center;verticalAlign=middle;fontFamily=Helvetica;fontSize=11;fontColor=default;labelBackgroundColor=default;endArrow=none;endFill=0;" parent="1" source="KDYq-KStEFV5s4hPV7sc-98" target="KDYq-KStEFV5s4hPV7sc-81" edge="1">
                    <mxGeometry relative="1" as="geometry"/>
                </mxCell>
                <mxCell id="KDYq-KStEFV5s4hPV7sc-98" value="" style="rounded=0;whiteSpace=wrap;html=1;fontFamily=Helvetica;fontSize=11;fontColor=default;labelBackgroundColor=default;direction=south;" parent="1" vertex="1">
                    <mxGeometry x="1205" y="920" width="30" height="50" as="geometry"/>
                </mxCell>
                <mxCell id="KDYq-KStEFV5s4hPV7sc-100" value="" style="edgeStyle=none;shape=connector;rounded=0;orthogonalLoop=1;jettySize=auto;html=1;strokeColor=default;align=center;verticalAlign=middle;fontFamily=Helvetica;fontSize=11;fontColor=default;labelBackgroundColor=default;endArrow=none;endFill=0;" parent="1" source="KDYq-KStEFV5s4hPV7sc-99" target="KDYq-KStEFV5s4hPV7sc-80" edge="1">
                    <mxGeometry relative="1" as="geometry"/>
                </mxCell>
                <mxCell id="KDYq-KStEFV5s4hPV7sc-99" value="" style="rounded=0;whiteSpace=wrap;html=1;fontFamily=Helvetica;fontSize=11;fontColor=default;labelBackgroundColor=default;direction=south;" parent="1" vertex="1">
                    <mxGeometry x="1365" y="920" width="30" height="50" as="geometry"/>
                </mxCell>
                <mxCell id="KDYq-KStEFV5s4hPV7sc-104" value="Nev" style="ellipse;whiteSpace=wrap;html=1;fontFamily=Helvetica;fontSize=11;fontColor=default;labelBackgroundColor=default;" parent="1" vertex="1">
                    <mxGeometry x="10" y="555" width="120" height="80" as="geometry"/>
                </mxCell>
                <mxCell id="KDYq-KStEFV5s4hPV7sc-105" value="Fajta" style="ellipse;whiteSpace=wrap;html=1;fontFamily=Helvetica;fontSize=11;fontColor=default;labelBackgroundColor=default;" parent="1" vertex="1">
                    <mxGeometry x="170" y="555" width="120" height="80" as="geometry"/>
                </mxCell>
                <mxCell id="KDYq-KStEFV5s4hPV7sc-106" value="Szuletesi datum" style="ellipse;whiteSpace=wrap;html=1;fontFamily=Helvetica;fontSize=11;fontColor=default;labelBackgroundColor=default;" parent="1" vertex="1">
                    <mxGeometry x="330" y="555" width="120" height="80" as="geometry"/>
                </mxCell>
                <mxCell id="KDYq-KStEFV5s4hPV7sc-108" value="Nem" style="ellipse;whiteSpace=wrap;html=1;fontFamily=Helvetica;fontSize=11;fontColor=default;labelBackgroundColor=default;" parent="1" vertex="1">
                    <mxGeometry x="650" y="555" width="120" height="80" as="geometry"/>
                </mxCell>
                <mxCell id="KDYq-KStEFV5s4hPV7sc-109" value="" style="ellipse;whiteSpace=wrap;html=1;fontFamily=Helvetica;fontSize=11;fontColor=default;labelBackgroundColor=default;" parent="1" vertex="1">
                    <mxGeometry x="485" y="555" width="120" height="80" as="geometry"/>
                </mxCell>
                <mxCell id="KDYq-KStEFV5s4hPV7sc-110" value="Bekerulesi datum" style="ellipse;whiteSpace=wrap;html=1;fontFamily=Helvetica;fontSize=11;fontColor=default;labelBackgroundColor=default;" parent="1" vertex="1">
                    <mxGeometry x="800" y="555" width="120" height="80" as="geometry"/>
                </mxCell>
                <mxCell id="KDYq-KStEFV5s4hPV7sc-111" value="Szin" style="ellipse;whiteSpace=wrap;html=1;fontFamily=Helvetica;fontSize=11;fontColor=default;labelBackgroundColor=default;" parent="1" vertex="1">
                    <mxGeometry x="490" y="560" width="110" height="70" as="geometry"/>
                </mxCell>
                <mxCell id="KDYq-KStEFV5s4hPV7sc-112" value="Macska" style="ellipse;whiteSpace=wrap;html=1;" parent="1" vertex="1">
                    <mxGeometry x="410" y="325" width="110" height="70" as="geometry"/>
                </mxCell>
                <mxCell id="KDYq-KStEFV5s4hPV7sc-120" value="Teljes nev" style="ellipse;whiteSpace=wrap;html=1;fontFamily=Helvetica;fontSize=11;fontColor=default;labelBackgroundColor=default;" parent="1" vertex="1">
                    <mxGeometry x="2160" y="560" width="120" height="80" as="geometry"/>
                </mxCell>
                <mxCell id="KDYq-KStEFV5s4hPV7sc-121" value="" style="ellipse;whiteSpace=wrap;html=1;fontFamily=Helvetica;fontSize=11;fontColor=default;labelBackgroundColor=default;" parent="1" vertex="1">
                    <mxGeometry x="2320" y="560" width="120" height="80" as="geometry"/>
                </mxCell>
                <mxCell id="KDYq-KStEFV5s4hPV7sc-122" value="Szakkepesites" style="ellipse;whiteSpace=wrap;html=1;fontFamily=Helvetica;fontSize=11;fontColor=default;labelBackgroundColor=default;" parent="1" vertex="1">
                    <mxGeometry x="2325" y="565" width="110" height="70" as="geometry"/>
                </mxCell>
                <mxCell id="KDYq-KStEFV5s4hPV7sc-123" value="Rendelo neve" style="ellipse;whiteSpace=wrap;html=1;fontFamily=Helvetica;fontSize=11;fontColor=default;labelBackgroundColor=default;" parent="1" vertex="1">
                    <mxGeometry x="2480" y="560" width="120" height="80" as="geometry"/>
                </mxCell>
                <mxCell id="KDYq-KStEFV5s4hPV7sc-124" value="Telefonszam" style="ellipse;whiteSpace=wrap;html=1;fontFamily=Helvetica;fontSize=11;fontColor=default;labelBackgroundColor=default;" parent="1" vertex="1">
                    <mxGeometry x="2640" y="560" width="120" height="80" as="geometry"/>
                </mxCell>
                <mxCell id="KDYq-KStEFV5s4hPV7sc-125" value="Email" style="ellipse;whiteSpace=wrap;html=1;fontFamily=Helvetica;fontSize=11;fontColor=default;labelBackgroundColor=default;" parent="1" vertex="1">
                    <mxGeometry x="2800" y="560" width="120" height="80" as="geometry"/>
                </mxCell>
                <mxCell id="KDYq-KStEFV5s4hPV7sc-131" value="Datum" style="ellipse;whiteSpace=wrap;html=1;fontFamily=Helvetica;fontSize=11;fontColor=default;labelBackgroundColor=default;" parent="1" vertex="1">
                    <mxGeometry x="-2760" y="555" width="120" height="80" as="geometry"/>
                </mxCell>
                <mxCell id="KDYq-KStEFV5s4hPV7sc-132" value="Kezeles tipusa" style="ellipse;whiteSpace=wrap;html=1;fontFamily=Helvetica;fontSize=11;fontColor=default;labelBackgroundColor=default;" parent="1" vertex="1">
                    <mxGeometry x="-2600" y="555" width="120" height="80" as="geometry"/>
                </mxCell>
                <mxCell id="KDYq-KStEFV5s4hPV7sc-133" value="Diagnozis" style="ellipse;whiteSpace=wrap;html=1;fontFamily=Helvetica;fontSize=11;fontColor=default;labelBackgroundColor=default;" parent="1" vertex="1">
                    <mxGeometry x="-2440" y="555" width="120" height="80" as="geometry"/>
                </mxCell>
                <mxCell id="KDYq-KStEFV5s4hPV7sc-134" value="Gyogyszerek" style="ellipse;whiteSpace=wrap;html=1;fontFamily=Helvetica;fontSize=11;fontColor=default;labelBackgroundColor=default;" parent="1" vertex="1">
                    <mxGeometry x="-2280" y="555" width="120" height="80" as="geometry"/>
                </mxCell>
                <mxCell id="KDYq-KStEFV5s4hPV7sc-135" value="Kovetkezo vizsgalat" style="ellipse;whiteSpace=wrap;html=1;fontFamily=Helvetica;fontSize=11;fontColor=default;labelBackgroundColor=default;" parent="1" vertex="1">
                    <mxGeometry x="-2120" y="555" width="120" height="80" as="geometry"/>
                </mxCell>
                <mxCell id="KDYq-KStEFV5s4hPV7sc-167" value="" style="edgeStyle=none;shape=connector;rounded=0;orthogonalLoop=1;jettySize=auto;html=1;strokeColor=default;align=center;verticalAlign=middle;fontFamily=Helvetica;fontSize=11;fontColor=default;labelBackgroundColor=default;endArrow=none;endFill=0;" parent="1" source="KDYq-KStEFV5s4hPV7sc-142" target="KDYq-KStEFV5s4hPV7sc-104" edge="1">
                    <mxGeometry relative="1" as="geometry"/>
                </mxCell>
                <mxCell id="KDYq-KStEFV5s4hPV7sc-142" value="" style="rounded=0;whiteSpace=wrap;html=1;fontFamily=Helvetica;fontSize=11;fontColor=default;labelBackgroundColor=default;direction=south;" parent="1" vertex="1">
                    <mxGeometry x="55" y="670" width="30" height="50" as="geometry"/>
                </mxCell>
                <mxCell id="KDYq-KStEFV5s4hPV7sc-166" value="" style="edgeStyle=none;shape=connector;rounded=0;orthogonalLoop=1;jettySize=auto;html=1;strokeColor=default;align=center;verticalAlign=middle;fontFamily=Helvetica;fontSize=11;fontColor=default;labelBackgroundColor=default;endArrow=none;endFill=0;" parent="1" source="KDYq-KStEFV5s4hPV7sc-143" target="KDYq-KStEFV5s4hPV7sc-105" edge="1">
                    <mxGeometry relative="1" as="geometry"/>
                </mxCell>
                <mxCell id="KDYq-KStEFV5s4hPV7sc-143" value="" style="rounded=0;whiteSpace=wrap;html=1;fontFamily=Helvetica;fontSize=11;fontColor=default;labelBackgroundColor=default;direction=south;" parent="1" vertex="1">
                    <mxGeometry x="215" y="670" width="30" height="50" as="geometry"/>
                </mxCell>
                <mxCell id="KDYq-KStEFV5s4hPV7sc-165" value="" style="edgeStyle=none;shape=connector;rounded=0;orthogonalLoop=1;jettySize=auto;html=1;strokeColor=default;align=center;verticalAlign=middle;fontFamily=Helvetica;fontSize=11;fontColor=default;labelBackgroundColor=default;endArrow=none;endFill=0;" parent="1" source="KDYq-KStEFV5s4hPV7sc-144" target="KDYq-KStEFV5s4hPV7sc-106" edge="1">
                    <mxGeometry relative="1" as="geometry"/>
                </mxCell>
                <mxCell id="KDYq-KStEFV5s4hPV7sc-144" value="" style="rounded=0;whiteSpace=wrap;html=1;fontFamily=Helvetica;fontSize=11;fontColor=default;labelBackgroundColor=default;direction=south;" parent="1" vertex="1">
                    <mxGeometry x="375" y="670" width="30" height="50" as="geometry"/>
                </mxCell>
                <mxCell id="KDYq-KStEFV5s4hPV7sc-164" value="" style="edgeStyle=none;shape=connector;rounded=0;orthogonalLoop=1;jettySize=auto;html=1;strokeColor=default;align=center;verticalAlign=middle;fontFamily=Helvetica;fontSize=11;fontColor=default;labelBackgroundColor=default;endArrow=none;endFill=0;" parent="1" source="KDYq-KStEFV5s4hPV7sc-145" target="KDYq-KStEFV5s4hPV7sc-111" edge="1">
                    <mxGeometry relative="1" as="geometry"/>
                </mxCell>
                <mxCell id="KDYq-KStEFV5s4hPV7sc-145" value="" style="rounded=0;whiteSpace=wrap;html=1;fontFamily=Helvetica;fontSize=11;fontColor=default;labelBackgroundColor=default;direction=south;" parent="1" vertex="1">
                    <mxGeometry x="530" y="670" width="30" height="50" as="geometry"/>
                </mxCell>
                <mxCell id="KDYq-KStEFV5s4hPV7sc-163" value="" style="edgeStyle=none;shape=connector;rounded=0;orthogonalLoop=1;jettySize=auto;html=1;strokeColor=default;align=center;verticalAlign=middle;fontFamily=Helvetica;fontSize=11;fontColor=default;labelBackgroundColor=default;endArrow=none;endFill=0;" parent="1" source="KDYq-KStEFV5s4hPV7sc-146" target="KDYq-KStEFV5s4hPV7sc-108" edge="1">
                    <mxGeometry relative="1" as="geometry"/>
                </mxCell>
                <mxCell id="KDYq-KStEFV5s4hPV7sc-146" value="" style="rounded=0;whiteSpace=wrap;html=1;fontFamily=Helvetica;fontSize=11;fontColor=default;labelBackgroundColor=default;direction=south;" parent="1" vertex="1">
                    <mxGeometry x="695" y="670" width="30" height="50" as="geometry"/>
                </mxCell>
                <mxCell id="KDYq-KStEFV5s4hPV7sc-161" value="" style="edgeStyle=none;shape=connector;rounded=0;orthogonalLoop=1;jettySize=auto;html=1;strokeColor=default;align=center;verticalAlign=middle;fontFamily=Helvetica;fontSize=11;fontColor=default;labelBackgroundColor=default;endArrow=none;endFill=0;" parent="1" edge="1">
                    <mxGeometry relative="1" as="geometry">
                        <mxPoint x="859.5" y="670" as="sourcePoint"/>
                        <mxPoint x="859.5" y="635" as="targetPoint"/>
                    </mxGeometry>
                </mxCell>
                <mxCell id="KDYq-KStEFV5s4hPV7sc-148" value="" style="rounded=0;whiteSpace=wrap;html=1;fontFamily=Helvetica;fontSize=11;fontColor=default;labelBackgroundColor=default;direction=south;" parent="1" vertex="1">
                    <mxGeometry x="845" y="670" width="30" height="50" as="geometry"/>
                </mxCell>
                <mxCell id="KDYq-KStEFV5s4hPV7sc-160" value="" style="edgeStyle=none;shape=connector;rounded=0;orthogonalLoop=1;jettySize=auto;html=1;strokeColor=default;align=center;verticalAlign=middle;fontFamily=Helvetica;fontSize=11;fontColor=default;labelBackgroundColor=default;endArrow=none;endFill=0;" parent="1" source="KDYq-KStEFV5s4hPV7sc-149" target="KDYq-KStEFV5s4hPV7sc-120" edge="1">
                    <mxGeometry relative="1" as="geometry"/>
                </mxCell>
                <mxCell id="KDYq-KStEFV5s4hPV7sc-149" value="" style="rounded=0;whiteSpace=wrap;html=1;fontFamily=Helvetica;fontSize=11;fontColor=default;labelBackgroundColor=default;direction=south;" parent="1" vertex="1">
                    <mxGeometry x="2205" y="680" width="30" height="50" as="geometry"/>
                </mxCell>
                <mxCell id="KDYq-KStEFV5s4hPV7sc-159" value="" style="edgeStyle=none;shape=connector;rounded=0;orthogonalLoop=1;jettySize=auto;html=1;strokeColor=default;align=center;verticalAlign=middle;fontFamily=Helvetica;fontSize=11;fontColor=default;labelBackgroundColor=default;endArrow=none;endFill=0;" parent="1" source="KDYq-KStEFV5s4hPV7sc-150" target="KDYq-KStEFV5s4hPV7sc-122" edge="1">
                    <mxGeometry relative="1" as="geometry"/>
                </mxCell>
                <mxCell id="KDYq-KStEFV5s4hPV7sc-150" value="" style="rounded=0;whiteSpace=wrap;html=1;fontFamily=Helvetica;fontSize=11;fontColor=default;labelBackgroundColor=default;direction=south;" parent="1" vertex="1">
                    <mxGeometry x="2365" y="680" width="30" height="50" as="geometry"/>
                </mxCell>
                <mxCell id="KDYq-KStEFV5s4hPV7sc-158" value="" style="edgeStyle=none;shape=connector;rounded=0;orthogonalLoop=1;jettySize=auto;html=1;strokeColor=default;align=center;verticalAlign=middle;fontFamily=Helvetica;fontSize=11;fontColor=default;labelBackgroundColor=default;endArrow=none;endFill=0;" parent="1" source="KDYq-KStEFV5s4hPV7sc-151" target="KDYq-KStEFV5s4hPV7sc-123" edge="1">
                    <mxGeometry relative="1" as="geometry"/>
                </mxCell>
                <mxCell id="KDYq-KStEFV5s4hPV7sc-151" value="" style="rounded=0;whiteSpace=wrap;html=1;fontFamily=Helvetica;fontSize=11;fontColor=default;labelBackgroundColor=default;direction=south;" parent="1" vertex="1">
                    <mxGeometry x="2525" y="680" width="30" height="50" as="geometry"/>
                </mxCell>
                <mxCell id="KDYq-KStEFV5s4hPV7sc-157" value="" style="edgeStyle=none;shape=connector;rounded=0;orthogonalLoop=1;jettySize=auto;html=1;strokeColor=default;align=center;verticalAlign=middle;fontFamily=Helvetica;fontSize=11;fontColor=default;labelBackgroundColor=default;endArrow=none;endFill=0;" parent="1" source="KDYq-KStEFV5s4hPV7sc-154" target="KDYq-KStEFV5s4hPV7sc-124" edge="1">
                    <mxGeometry relative="1" as="geometry"/>
                </mxCell>
                <mxCell id="KDYq-KStEFV5s4hPV7sc-154" value="" style="rounded=0;whiteSpace=wrap;html=1;fontFamily=Helvetica;fontSize=11;fontColor=default;labelBackgroundColor=default;direction=south;" parent="1" vertex="1">
                    <mxGeometry x="2685" y="680" width="30" height="50" as="geometry"/>
                </mxCell>
                <mxCell id="KDYq-KStEFV5s4hPV7sc-156" value="" style="edgeStyle=none;shape=connector;rounded=0;orthogonalLoop=1;jettySize=auto;html=1;strokeColor=default;align=center;verticalAlign=middle;fontFamily=Helvetica;fontSize=11;fontColor=default;labelBackgroundColor=default;endArrow=none;endFill=0;" parent="1" source="KDYq-KStEFV5s4hPV7sc-155" target="KDYq-KStEFV5s4hPV7sc-125" edge="1">
                    <mxGeometry relative="1" as="geometry"/>
                </mxCell>
                <mxCell id="KDYq-KStEFV5s4hPV7sc-155" value="" style="rounded=0;whiteSpace=wrap;html=1;fontFamily=Helvetica;fontSize=11;fontColor=default;labelBackgroundColor=default;direction=south;" parent="1" vertex="1">
                    <mxGeometry x="2845" y="680" width="30" height="50" as="geometry"/>
                </mxCell>
                <mxCell id="KDYq-KStEFV5s4hPV7sc-177" value="" style="edgeStyle=none;shape=connector;rounded=0;orthogonalLoop=1;jettySize=auto;html=1;strokeColor=default;align=center;verticalAlign=middle;fontFamily=Helvetica;fontSize=11;fontColor=default;labelBackgroundColor=default;endArrow=none;endFill=0;" parent="1" source="KDYq-KStEFV5s4hPV7sc-168" target="KDYq-KStEFV5s4hPV7sc-131" edge="1">
                    <mxGeometry relative="1" as="geometry"/>
                </mxCell>
                <mxCell id="KDYq-KStEFV5s4hPV7sc-168" value="" style="rounded=0;whiteSpace=wrap;html=1;fontFamily=Helvetica;fontSize=11;fontColor=default;labelBackgroundColor=default;direction=south;" parent="1" vertex="1">
                    <mxGeometry x="-2715" y="675" width="30" height="50" as="geometry"/>
                </mxCell>
                <mxCell id="KDYq-KStEFV5s4hPV7sc-176" value="" style="edgeStyle=none;shape=connector;rounded=0;orthogonalLoop=1;jettySize=auto;html=1;strokeColor=default;align=center;verticalAlign=middle;fontFamily=Helvetica;fontSize=11;fontColor=default;labelBackgroundColor=default;endArrow=none;endFill=0;" parent="1" source="KDYq-KStEFV5s4hPV7sc-169" target="KDYq-KStEFV5s4hPV7sc-132" edge="1">
                    <mxGeometry relative="1" as="geometry"/>
                </mxCell>
                <mxCell id="KDYq-KStEFV5s4hPV7sc-169" value="" style="rounded=0;whiteSpace=wrap;html=1;fontFamily=Helvetica;fontSize=11;fontColor=default;labelBackgroundColor=default;direction=south;" parent="1" vertex="1">
                    <mxGeometry x="-2555" y="675" width="30" height="50" as="geometry"/>
                </mxCell>
                <mxCell id="KDYq-KStEFV5s4hPV7sc-175" value="" style="edgeStyle=none;shape=connector;rounded=0;orthogonalLoop=1;jettySize=auto;html=1;strokeColor=default;align=center;verticalAlign=middle;fontFamily=Helvetica;fontSize=11;fontColor=default;labelBackgroundColor=default;endArrow=none;endFill=0;" parent="1" source="KDYq-KStEFV5s4hPV7sc-170" target="KDYq-KStEFV5s4hPV7sc-133" edge="1">
                    <mxGeometry relative="1" as="geometry"/>
                </mxCell>
                <mxCell id="KDYq-KStEFV5s4hPV7sc-170" value="" style="rounded=0;whiteSpace=wrap;html=1;fontFamily=Helvetica;fontSize=11;fontColor=default;labelBackgroundColor=default;direction=south;" parent="1" vertex="1">
                    <mxGeometry x="-2395" y="675" width="30" height="50" as="geometry"/>
                </mxCell>
                <mxCell id="KDYq-KStEFV5s4hPV7sc-174" value="" style="edgeStyle=none;shape=connector;rounded=0;orthogonalLoop=1;jettySize=auto;html=1;strokeColor=default;align=center;verticalAlign=middle;fontFamily=Helvetica;fontSize=11;fontColor=default;labelBackgroundColor=default;endArrow=none;endFill=0;" parent="1" source="KDYq-KStEFV5s4hPV7sc-171" target="KDYq-KStEFV5s4hPV7sc-134" edge="1">
                    <mxGeometry relative="1" as="geometry"/>
                </mxCell>
                <mxCell id="KDYq-KStEFV5s4hPV7sc-171" value="" style="rounded=0;whiteSpace=wrap;html=1;fontFamily=Helvetica;fontSize=11;fontColor=default;labelBackgroundColor=default;direction=south;" parent="1" vertex="1">
                    <mxGeometry x="-2235" y="675" width="30" height="50" as="geometry"/>
                </mxCell>
                <mxCell id="KDYq-KStEFV5s4hPV7sc-173" value="" style="edgeStyle=none;shape=connector;rounded=0;orthogonalLoop=1;jettySize=auto;html=1;strokeColor=default;align=center;verticalAlign=middle;fontFamily=Helvetica;fontSize=11;fontColor=default;labelBackgroundColor=default;endArrow=none;endFill=0;" parent="1" source="KDYq-KStEFV5s4hPV7sc-172" target="KDYq-KStEFV5s4hPV7sc-135" edge="1">
                    <mxGeometry relative="1" as="geometry"/>
                </mxCell>
                <mxCell id="KDYq-KStEFV5s4hPV7sc-172" value="" style="rounded=0;whiteSpace=wrap;html=1;fontFamily=Helvetica;fontSize=11;fontColor=default;labelBackgroundColor=default;direction=south;" parent="1" vertex="1">
                    <mxGeometry x="-2075" y="675" width="30" height="50" as="geometry"/>
                </mxCell>
                <mxCell id="KDYq-KStEFV5s4hPV7sc-178" value="Megjegyzes" style="ellipse;whiteSpace=wrap;html=1;fontFamily=Helvetica;fontSize=11;fontColor=default;labelBackgroundColor=default;" parent="1" vertex="1">
                    <mxGeometry x="-1400" y="560" width="120" height="80" as="geometry"/>
                </mxCell>
                <mxCell id="KDYq-KStEFV5s4hPV7sc-179" value="Statusz" style="ellipse;whiteSpace=wrap;html=1;fontFamily=Helvetica;fontSize=11;fontColor=default;labelBackgroundColor=default;" parent="1" vertex="1">
                    <mxGeometry x="-1560" y="560" width="120" height="80" as="geometry"/>
                </mxCell>
                <mxCell id="KDYq-KStEFV5s4hPV7sc-180" value="Orokbefogadas&lt;div&gt;datuma&lt;/div&gt;" style="ellipse;whiteSpace=wrap;html=1;fontFamily=Helvetica;fontSize=11;fontColor=default;labelBackgroundColor=default;" parent="1" vertex="1">
                    <mxGeometry x="-1880" y="560" width="120" height="80" as="geometry"/>
                </mxCell>
                <mxCell id="KDYq-KStEFV5s4hPV7sc-181" value="Orokbefogadasi&lt;div&gt;dij&lt;/div&gt;" style="ellipse;whiteSpace=wrap;html=1;fontFamily=Helvetica;fontSize=11;fontColor=default;labelBackgroundColor=default;" parent="1" vertex="1">
                    <mxGeometry x="-1720" y="560" width="120" height="80" as="geometry"/>
                </mxCell>
                <mxCell id="KDYq-KStEFV5s4hPV7sc-219" style="edgeStyle=none;shape=connector;rounded=0;orthogonalLoop=1;jettySize=auto;html=1;entryX=0.5;entryY=1;entryDx=0;entryDy=0;strokeColor=default;align=center;verticalAlign=middle;fontFamily=Helvetica;fontSize=11;fontColor=default;labelBackgroundColor=default;endArrow=none;endFill=0;" parent="1" source="KDYq-KStEFV5s4hPV7sc-187" target="KDYq-KStEFV5s4hPV7sc-45" edge="1">
                    <mxGeometry relative="1" as="geometry"/>
                </mxCell>
                <mxCell id="17" style="edgeStyle=none;html=1;exitX=0.5;exitY=1;exitDx=0;exitDy=0;entryX=0.5;entryY=0;entryDx=0;entryDy=0;endArrow=none;endFill=0;" edge="1" parent="1" source="KDYq-KStEFV5s4hPV7sc-187" target="12">
                    <mxGeometry relative="1" as="geometry"/>
                </mxCell>
                <mxCell id="18" style="edgeStyle=none;shape=connector;rounded=1;html=1;exitX=0.5;exitY=1;exitDx=0;exitDy=0;entryX=0.5;entryY=0;entryDx=0;entryDy=0;labelBackgroundColor=default;strokeColor=default;fontFamily=Helvetica;fontSize=11;fontColor=default;endArrow=none;endFill=0;" edge="1" parent="1" source="KDYq-KStEFV5s4hPV7sc-187" target="11">
                    <mxGeometry relative="1" as="geometry"/>
                </mxCell>
                <mxCell id="KDYq-KStEFV5s4hPV7sc-187" value="Teljes nev" style="ellipse;whiteSpace=wrap;html=1;fontFamily=Helvetica;fontSize=11;fontColor=default;labelBackgroundColor=default;" parent="1" vertex="1">
                    <mxGeometry x="-315" y="560" width="120" height="80" as="geometry"/>
                </mxCell>
                <mxCell id="KDYq-KStEFV5s4hPV7sc-218" style="edgeStyle=none;shape=connector;rounded=0;orthogonalLoop=1;jettySize=auto;html=1;entryX=0.5;entryY=1;entryDx=0;entryDy=0;strokeColor=default;align=center;verticalAlign=middle;fontFamily=Helvetica;fontSize=11;fontColor=default;labelBackgroundColor=default;endArrow=none;endFill=0;" parent="1" source="KDYq-KStEFV5s4hPV7sc-188" target="KDYq-KStEFV5s4hPV7sc-45" edge="1">
                    <mxGeometry relative="1" as="geometry"/>
                </mxCell>
                <mxCell id="KDYq-KStEFV5s4hPV7sc-188" value="Szuletesi datum" style="ellipse;whiteSpace=wrap;html=1;fontFamily=Helvetica;fontSize=11;fontColor=default;labelBackgroundColor=default;" parent="1" vertex="1">
                    <mxGeometry x="-795" y="560" width="120" height="80" as="geometry"/>
                </mxCell>
                <mxCell id="KDYq-KStEFV5s4hPV7sc-189" value="Telefonszam" style="ellipse;whiteSpace=wrap;html=1;fontFamily=Helvetica;fontSize=11;fontColor=default;labelBackgroundColor=default;" parent="1" vertex="1">
                    <mxGeometry x="-635" y="560" width="120" height="80" as="geometry"/>
                </mxCell>
                <mxCell id="KDYq-KStEFV5s4hPV7sc-222" style="edgeStyle=none;shape=connector;rounded=0;orthogonalLoop=1;jettySize=auto;html=1;entryX=0.5;entryY=1;entryDx=0;entryDy=0;strokeColor=default;align=center;verticalAlign=middle;fontFamily=Helvetica;fontSize=11;fontColor=default;labelBackgroundColor=default;endArrow=none;endFill=0;" parent="1" source="KDYq-KStEFV5s4hPV7sc-190" target="KDYq-KStEFV5s4hPV7sc-45" edge="1">
                    <mxGeometry relative="1" as="geometry"/>
                </mxCell>
                <mxCell id="KDYq-KStEFV5s4hPV7sc-190" value="Email" style="ellipse;whiteSpace=wrap;html=1;fontFamily=Helvetica;fontSize=11;fontColor=default;labelBackgroundColor=default;" parent="1" vertex="1">
                    <mxGeometry x="-475" y="560" width="120" height="80" as="geometry"/>
                </mxCell>
                <mxCell id="KDYq-KStEFV5s4hPV7sc-192" style="edgeStyle=none;shape=connector;rounded=0;orthogonalLoop=1;jettySize=auto;html=1;exitX=0.5;exitY=1;exitDx=0;exitDy=0;entryX=0.5;entryY=0;entryDx=0;entryDy=0;strokeColor=default;align=center;verticalAlign=middle;fontFamily=Helvetica;fontSize=11;fontColor=default;labelBackgroundColor=default;endArrow=none;endFill=0;" parent="1" source="KDYq-KStEFV5s4hPV7sc-194" target="KDYq-KStEFV5s4hPV7sc-197" edge="1">
                    <mxGeometry relative="1" as="geometry"/>
                </mxCell>
                <mxCell id="KDYq-KStEFV5s4hPV7sc-193" style="edgeStyle=none;shape=connector;rounded=0;orthogonalLoop=1;jettySize=auto;html=1;exitX=0.5;exitY=1;exitDx=0;exitDy=0;entryX=0.5;entryY=0;entryDx=0;entryDy=0;strokeColor=default;align=center;verticalAlign=middle;fontFamily=Helvetica;fontSize=11;fontColor=default;labelBackgroundColor=default;endArrow=none;endFill=0;" parent="1" source="KDYq-KStEFV5s4hPV7sc-194" edge="1">
                    <mxGeometry relative="1" as="geometry">
                        <mxPoint x="-810" y="800" as="targetPoint"/>
                    </mxGeometry>
                </mxCell>
                <mxCell id="KDYq-KStEFV5s4hPV7sc-207" style="edgeStyle=none;shape=connector;rounded=0;orthogonalLoop=1;jettySize=auto;html=1;exitX=0.5;exitY=1;exitDx=0;exitDy=0;entryX=0.5;entryY=0;entryDx=0;entryDy=0;strokeColor=default;align=center;verticalAlign=middle;fontFamily=Helvetica;fontSize=11;fontColor=default;labelBackgroundColor=default;endArrow=none;endFill=0;" parent="1" source="KDYq-KStEFV5s4hPV7sc-194" edge="1">
                    <mxGeometry relative="1" as="geometry">
                        <mxPoint x="-1130" y="800.0000000000005" as="targetPoint"/>
                    </mxGeometry>
                </mxCell>
                <mxCell id="KDYq-KStEFV5s4hPV7sc-208" style="edgeStyle=none;shape=connector;rounded=0;orthogonalLoop=1;jettySize=auto;html=1;exitX=0.5;exitY=1;exitDx=0;exitDy=0;entryX=0.5;entryY=0;entryDx=0;entryDy=0;strokeColor=default;align=center;verticalAlign=middle;fontFamily=Helvetica;fontSize=11;fontColor=default;labelBackgroundColor=default;endArrow=none;endFill=0;" parent="1" source="KDYq-KStEFV5s4hPV7sc-194" edge="1">
                    <mxGeometry relative="1" as="geometry">
                        <mxPoint x="-650" y="800" as="targetPoint"/>
                    </mxGeometry>
                </mxCell>
                <mxCell id="KDYq-KStEFV5s4hPV7sc-220" style="edgeStyle=none;shape=connector;rounded=0;orthogonalLoop=1;jettySize=auto;html=1;strokeColor=default;align=center;verticalAlign=middle;fontFamily=Helvetica;fontSize=11;fontColor=default;labelBackgroundColor=default;endArrow=none;endFill=0;" parent="1" source="KDYq-KStEFV5s4hPV7sc-194" edge="1">
                    <mxGeometry relative="1" as="geometry">
                        <mxPoint x="-575" y="400" as="targetPoint"/>
                    </mxGeometry>
                </mxCell>
                <mxCell id="KDYq-KStEFV5s4hPV7sc-194" value="Cim" style="ellipse;whiteSpace=wrap;html=1;fontFamily=Helvetica;fontSize=11;fontColor=default;labelBackgroundColor=default;" parent="1" vertex="1">
                    <mxGeometry x="-950" y="560" width="120" height="80" as="geometry"/>
                </mxCell>
                <mxCell id="KDYq-KStEFV5s4hPV7sc-195" value="Hazszam" style="ellipse;whiteSpace=wrap;html=1;fontFamily=Helvetica;fontSize=11;fontColor=default;labelBackgroundColor=default;" parent="1" vertex="1">
                    <mxGeometry x="-710" y="800" width="120" height="80" as="geometry"/>
                </mxCell>
                <mxCell id="KDYq-KStEFV5s4hPV7sc-196" value="Utca" style="ellipse;whiteSpace=wrap;html=1;fontFamily=Helvetica;fontSize=11;fontColor=default;labelBackgroundColor=default;" parent="1" vertex="1">
                    <mxGeometry x="-870" y="800" width="120" height="80" as="geometry"/>
                </mxCell>
                <mxCell id="KDYq-KStEFV5s4hPV7sc-197" value="Varos" style="ellipse;whiteSpace=wrap;html=1;fontFamily=Helvetica;fontSize=11;fontColor=default;labelBackgroundColor=default;" parent="1" vertex="1">
                    <mxGeometry x="-1030" y="800" width="120" height="80" as="geometry"/>
                </mxCell>
                <mxCell id="KDYq-KStEFV5s4hPV7sc-198" value="Iranyitoszam" style="ellipse;whiteSpace=wrap;html=1;fontFamily=Helvetica;fontSize=11;fontColor=default;labelBackgroundColor=default;" parent="1" vertex="1">
                    <mxGeometry x="-1190" y="800" width="120" height="80" as="geometry"/>
                </mxCell>
                <mxCell id="KDYq-KStEFV5s4hPV7sc-199" value="" style="edgeStyle=none;shape=connector;rounded=0;orthogonalLoop=1;jettySize=auto;html=1;strokeColor=default;align=center;verticalAlign=middle;fontFamily=Helvetica;fontSize=11;fontColor=default;labelBackgroundColor=default;endArrow=none;endFill=0;" parent="1" source="KDYq-KStEFV5s4hPV7sc-200" edge="1">
                    <mxGeometry relative="1" as="geometry">
                        <mxPoint x="-1130" y="880.0000000000005" as="targetPoint"/>
                    </mxGeometry>
                </mxCell>
                <mxCell id="KDYq-KStEFV5s4hPV7sc-200" value="" style="rounded=0;whiteSpace=wrap;html=1;fontFamily=Helvetica;fontSize=11;fontColor=default;labelBackgroundColor=default;direction=south;" parent="1" vertex="1">
                    <mxGeometry x="-1145" y="920" width="30" height="50" as="geometry"/>
                </mxCell>
                <mxCell id="KDYq-KStEFV5s4hPV7sc-201" value="" style="edgeStyle=none;shape=connector;rounded=0;orthogonalLoop=1;jettySize=auto;html=1;strokeColor=default;align=center;verticalAlign=middle;fontFamily=Helvetica;fontSize=11;fontColor=default;labelBackgroundColor=default;endArrow=none;endFill=0;" parent="1" source="KDYq-KStEFV5s4hPV7sc-202" target="KDYq-KStEFV5s4hPV7sc-197" edge="1">
                    <mxGeometry relative="1" as="geometry"/>
                </mxCell>
                <mxCell id="KDYq-KStEFV5s4hPV7sc-202" value="" style="rounded=0;whiteSpace=wrap;html=1;fontFamily=Helvetica;fontSize=11;fontColor=default;labelBackgroundColor=default;direction=south;" parent="1" vertex="1">
                    <mxGeometry x="-985" y="920" width="30" height="50" as="geometry"/>
                </mxCell>
                <mxCell id="KDYq-KStEFV5s4hPV7sc-203" value="" style="edgeStyle=none;shape=connector;rounded=0;orthogonalLoop=1;jettySize=auto;html=1;strokeColor=default;align=center;verticalAlign=middle;fontFamily=Helvetica;fontSize=11;fontColor=default;labelBackgroundColor=default;endArrow=none;endFill=0;" parent="1" source="KDYq-KStEFV5s4hPV7sc-204" target="KDYq-KStEFV5s4hPV7sc-196" edge="1">
                    <mxGeometry relative="1" as="geometry"/>
                </mxCell>
                <mxCell id="KDYq-KStEFV5s4hPV7sc-204" value="" style="rounded=0;whiteSpace=wrap;html=1;fontFamily=Helvetica;fontSize=11;fontColor=default;labelBackgroundColor=default;direction=south;" parent="1" vertex="1">
                    <mxGeometry x="-825" y="920" width="30" height="50" as="geometry"/>
                </mxCell>
                <mxCell id="KDYq-KStEFV5s4hPV7sc-205" value="" style="edgeStyle=none;shape=connector;rounded=0;orthogonalLoop=1;jettySize=auto;html=1;strokeColor=default;align=center;verticalAlign=middle;fontFamily=Helvetica;fontSize=11;fontColor=default;labelBackgroundColor=default;endArrow=none;endFill=0;" parent="1" source="KDYq-KStEFV5s4hPV7sc-206" target="KDYq-KStEFV5s4hPV7sc-195" edge="1">
                    <mxGeometry relative="1" as="geometry"/>
                </mxCell>
                <mxCell id="KDYq-KStEFV5s4hPV7sc-206" value="" style="rounded=0;whiteSpace=wrap;html=1;fontFamily=Helvetica;fontSize=11;fontColor=default;labelBackgroundColor=default;direction=south;" parent="1" vertex="1">
                    <mxGeometry x="-665" y="920" width="30" height="50" as="geometry"/>
                </mxCell>
                <mxCell id="KDYq-KStEFV5s4hPV7sc-213" value="" style="edgeStyle=none;shape=connector;rounded=0;orthogonalLoop=1;jettySize=auto;html=1;strokeColor=default;align=center;verticalAlign=middle;fontFamily=Helvetica;fontSize=11;fontColor=default;labelBackgroundColor=default;endArrow=none;endFill=0;" parent="1" source="KDYq-KStEFV5s4hPV7sc-209" target="KDYq-KStEFV5s4hPV7sc-180" edge="1">
                    <mxGeometry relative="1" as="geometry"/>
                </mxCell>
                <mxCell id="KDYq-KStEFV5s4hPV7sc-209" value="" style="rounded=0;whiteSpace=wrap;html=1;fontFamily=Helvetica;fontSize=11;fontColor=default;labelBackgroundColor=default;direction=south;" parent="1" vertex="1">
                    <mxGeometry x="-1835" y="680" width="30" height="50" as="geometry"/>
                </mxCell>
                <mxCell id="KDYq-KStEFV5s4hPV7sc-215" value="" style="edgeStyle=none;shape=connector;rounded=0;orthogonalLoop=1;jettySize=auto;html=1;strokeColor=default;align=center;verticalAlign=middle;fontFamily=Helvetica;fontSize=11;fontColor=default;labelBackgroundColor=default;endArrow=none;endFill=0;" parent="1" source="KDYq-KStEFV5s4hPV7sc-210" target="KDYq-KStEFV5s4hPV7sc-179" edge="1">
                    <mxGeometry relative="1" as="geometry"/>
                </mxCell>
                <mxCell id="KDYq-KStEFV5s4hPV7sc-210" value="" style="rounded=0;whiteSpace=wrap;html=1;fontFamily=Helvetica;fontSize=11;fontColor=default;labelBackgroundColor=default;direction=south;" parent="1" vertex="1">
                    <mxGeometry x="-1520" y="680" width="30" height="50" as="geometry"/>
                </mxCell>
                <mxCell id="KDYq-KStEFV5s4hPV7sc-214" value="" style="edgeStyle=none;shape=connector;rounded=0;orthogonalLoop=1;jettySize=auto;html=1;strokeColor=default;align=center;verticalAlign=middle;fontFamily=Helvetica;fontSize=11;fontColor=default;labelBackgroundColor=default;endArrow=none;endFill=0;" parent="1" source="KDYq-KStEFV5s4hPV7sc-211" target="KDYq-KStEFV5s4hPV7sc-181" edge="1">
                    <mxGeometry relative="1" as="geometry"/>
                </mxCell>
                <mxCell id="KDYq-KStEFV5s4hPV7sc-211" value="" style="rounded=0;whiteSpace=wrap;html=1;fontFamily=Helvetica;fontSize=11;fontColor=default;labelBackgroundColor=default;direction=south;" parent="1" vertex="1">
                    <mxGeometry x="-1675" y="680" width="30" height="50" as="geometry"/>
                </mxCell>
                <mxCell id="KDYq-KStEFV5s4hPV7sc-216" value="" style="edgeStyle=none;shape=connector;rounded=0;orthogonalLoop=1;jettySize=auto;html=1;strokeColor=default;align=center;verticalAlign=middle;fontFamily=Helvetica;fontSize=11;fontColor=default;labelBackgroundColor=default;endArrow=none;endFill=0;" parent="1" source="KDYq-KStEFV5s4hPV7sc-212" target="KDYq-KStEFV5s4hPV7sc-178" edge="1">
                    <mxGeometry relative="1" as="geometry"/>
                </mxCell>
                <mxCell id="KDYq-KStEFV5s4hPV7sc-212" value="" style="rounded=0;whiteSpace=wrap;html=1;fontFamily=Helvetica;fontSize=11;fontColor=default;labelBackgroundColor=default;direction=south;" parent="1" vertex="1">
                    <mxGeometry x="-1355" y="680" width="30" height="50" as="geometry"/>
                </mxCell>
                <mxCell id="KDYq-KStEFV5s4hPV7sc-221" style="edgeStyle=none;shape=connector;rounded=0;orthogonalLoop=1;jettySize=auto;html=1;entryX=0.5;entryY=1;entryDx=0;entryDy=0;strokeColor=default;align=center;verticalAlign=middle;fontFamily=Helvetica;fontSize=11;fontColor=default;labelBackgroundColor=default;endArrow=none;endFill=0;exitX=0.5;exitY=0;exitDx=0;exitDy=0;" parent="1" source="KDYq-KStEFV5s4hPV7sc-189" target="KDYq-KStEFV5s4hPV7sc-45" edge="1">
                    <mxGeometry relative="1" as="geometry">
                        <mxPoint x="-439.00928324715096" y="578.5109015873907" as="sourcePoint"/>
                    </mxGeometry>
                </mxCell>
                <mxCell id="KDYq-KStEFV5s4hPV7sc-228" value="" style="edgeStyle=none;shape=connector;rounded=0;orthogonalLoop=1;jettySize=auto;html=1;strokeColor=default;align=center;verticalAlign=middle;fontFamily=Helvetica;fontSize=11;fontColor=default;labelBackgroundColor=default;endArrow=none;endFill=0;" parent="1" source="KDYq-KStEFV5s4hPV7sc-224" target="KDYq-KStEFV5s4hPV7sc-188" edge="1">
                    <mxGeometry relative="1" as="geometry"/>
                </mxCell>
                <mxCell id="KDYq-KStEFV5s4hPV7sc-224" value="" style="rounded=0;whiteSpace=wrap;html=1;fontFamily=Helvetica;fontSize=11;fontColor=default;labelBackgroundColor=default;direction=south;" parent="1" vertex="1">
                    <mxGeometry x="-750" y="680" width="30" height="50" as="geometry"/>
                </mxCell>
                <mxCell id="KDYq-KStEFV5s4hPV7sc-229" value="" style="edgeStyle=none;shape=connector;rounded=0;orthogonalLoop=1;jettySize=auto;html=1;strokeColor=default;align=center;verticalAlign=middle;fontFamily=Helvetica;fontSize=11;fontColor=default;labelBackgroundColor=default;endArrow=none;endFill=0;" parent="1" source="KDYq-KStEFV5s4hPV7sc-225" edge="1">
                    <mxGeometry relative="1" as="geometry">
                        <mxPoint x="-575" y="640" as="targetPoint"/>
                    </mxGeometry>
                </mxCell>
                <mxCell id="KDYq-KStEFV5s4hPV7sc-225" value="" style="rounded=0;whiteSpace=wrap;html=1;fontFamily=Helvetica;fontSize=11;fontColor=default;labelBackgroundColor=default;direction=south;" parent="1" vertex="1">
                    <mxGeometry x="-590" y="680" width="30" height="50" as="geometry"/>
                </mxCell>
                <mxCell id="KDYq-KStEFV5s4hPV7sc-230" value="" style="edgeStyle=none;shape=connector;rounded=0;orthogonalLoop=1;jettySize=auto;html=1;strokeColor=default;align=center;verticalAlign=middle;fontFamily=Helvetica;fontSize=11;fontColor=default;labelBackgroundColor=default;endArrow=none;endFill=0;" parent="1" source="KDYq-KStEFV5s4hPV7sc-226" target="KDYq-KStEFV5s4hPV7sc-190" edge="1">
                    <mxGeometry relative="1" as="geometry"/>
                </mxCell>
                <mxCell id="KDYq-KStEFV5s4hPV7sc-226" value="" style="rounded=0;whiteSpace=wrap;html=1;fontFamily=Helvetica;fontSize=11;fontColor=default;labelBackgroundColor=default;direction=south;" parent="1" vertex="1">
                    <mxGeometry x="-430" y="680" width="30" height="50" as="geometry"/>
                </mxCell>
                <mxCell id="KDYq-KStEFV5s4hPV7sc-254" style="edgeStyle=none;shape=connector;rounded=0;orthogonalLoop=1;jettySize=auto;html=1;exitX=0.5;exitY=1;exitDx=0;exitDy=0;strokeColor=default;align=center;verticalAlign=middle;fontFamily=Helvetica;fontSize=11;fontColor=default;labelBackgroundColor=default;endArrow=none;endFill=0;" parent="1" source="KDYq-KStEFV5s4hPV7sc-23" target="KDYq-KStEFV5s4hPV7sc-23" edge="1">
                    <mxGeometry relative="1" as="geometry"/>
                </mxCell>
                <mxCell id="11" value="Keresztev" style="ellipse;whiteSpace=wrap;html=1;fontFamily=Helvetica;fontSize=11;fontColor=default;labelBackgroundColor=default;" vertex="1" parent="1">
                    <mxGeometry x="-240" y="800" width="120" height="80" as="geometry"/>
                </mxCell>
                <mxCell id="12" value="Vezeteknev" style="ellipse;whiteSpace=wrap;html=1;fontFamily=Helvetica;fontSize=11;fontColor=default;labelBackgroundColor=default;" vertex="1" parent="1">
                    <mxGeometry x="-400" y="800" width="120" height="80" as="geometry"/>
                </mxCell>
                <mxCell id="13" value="" style="edgeStyle=none;shape=connector;rounded=0;orthogonalLoop=1;jettySize=auto;html=1;strokeColor=default;align=center;verticalAlign=middle;fontFamily=Helvetica;fontSize=11;fontColor=default;labelBackgroundColor=default;endArrow=none;endFill=0;" edge="1" parent="1" source="14" target="12">
                    <mxGeometry relative="1" as="geometry"/>
                </mxCell>
                <mxCell id="14" value="" style="rounded=0;whiteSpace=wrap;html=1;fontFamily=Helvetica;fontSize=11;fontColor=default;labelBackgroundColor=default;direction=south;" vertex="1" parent="1">
                    <mxGeometry x="-355" y="920" width="30" height="50" as="geometry"/>
                </mxCell>
                <mxCell id="15" value="" style="edgeStyle=none;shape=connector;rounded=0;orthogonalLoop=1;jettySize=auto;html=1;strokeColor=default;align=center;verticalAlign=middle;fontFamily=Helvetica;fontSize=11;fontColor=default;labelBackgroundColor=default;endArrow=none;endFill=0;" edge="1" parent="1" source="16" target="11">
                    <mxGeometry relative="1" as="geometry"/>
                </mxCell>
                <mxCell id="16" value="" style="rounded=0;whiteSpace=wrap;html=1;fontFamily=Helvetica;fontSize=11;fontColor=default;labelBackgroundColor=default;direction=south;" vertex="1" parent="1">
                    <mxGeometry x="-195" y="920" width="30" height="50" as="geometry"/>
                </mxCell>
                <mxCell id="19" value="Keresztev" style="ellipse;whiteSpace=wrap;html=1;fontFamily=Helvetica;fontSize=11;fontColor=default;labelBackgroundColor=default;" vertex="1" parent="1">
                    <mxGeometry x="1960" y="800" width="120" height="80" as="geometry"/>
                </mxCell>
                <mxCell id="20" value="Vezeteknev" style="ellipse;whiteSpace=wrap;html=1;fontFamily=Helvetica;fontSize=11;fontColor=default;labelBackgroundColor=default;" vertex="1" parent="1">
                    <mxGeometry x="1800" y="800" width="120" height="80" as="geometry"/>
                </mxCell>
                <mxCell id="21" value="" style="edgeStyle=none;shape=connector;rounded=0;orthogonalLoop=1;jettySize=auto;html=1;strokeColor=default;align=center;verticalAlign=middle;fontFamily=Helvetica;fontSize=11;fontColor=default;labelBackgroundColor=default;endArrow=none;endFill=0;" edge="1" parent="1" source="22" target="20">
                    <mxGeometry relative="1" as="geometry"/>
                </mxCell>
                <mxCell id="22" value="" style="rounded=0;whiteSpace=wrap;html=1;fontFamily=Helvetica;fontSize=11;fontColor=default;labelBackgroundColor=default;direction=south;" vertex="1" parent="1">
                    <mxGeometry x="1845" y="920" width="30" height="50" as="geometry"/>
                </mxCell>
                <mxCell id="23" value="" style="edgeStyle=none;shape=connector;rounded=0;orthogonalLoop=1;jettySize=auto;html=1;strokeColor=default;align=center;verticalAlign=middle;fontFamily=Helvetica;fontSize=11;fontColor=default;labelBackgroundColor=default;endArrow=none;endFill=0;" edge="1" parent="1" source="24" target="19">
                    <mxGeometry relative="1" as="geometry"/>
                </mxCell>
                <mxCell id="24" value="" style="rounded=0;whiteSpace=wrap;html=1;fontFamily=Helvetica;fontSize=11;fontColor=default;labelBackgroundColor=default;direction=south;" vertex="1" parent="1">
                    <mxGeometry x="2005" y="920" width="30" height="50" as="geometry"/>
                </mxCell>
                <mxCell id="41" value="Allatorvos" style="ellipse;whiteSpace=wrap;html=1;" vertex="1" parent="1">
                    <mxGeometry x="2485" y="325" width="110" height="70" as="geometry"/>
                </mxCell>
                <mxCell id="44" value="Orokbefogado" style="ellipse;whiteSpace=wrap;html=1;" vertex="1" parent="1">
                    <mxGeometry x="-630" y="325" width="110" height="70" as="geometry"/>
                </mxCell>
                <mxCell id="45" value="Orokbefogadas" style="ellipse;whiteSpace=wrap;html=1;" vertex="1" parent="1">
                    <mxGeometry x="-1635" y="325" width="110" height="70" as="geometry"/>
                </mxCell>
                <mxCell id="46" value="Egeszsegugyi&lt;div&gt;karton&lt;/div&gt;" style="ellipse;whiteSpace=wrap;html=1;" vertex="1" parent="1">
                    <mxGeometry x="-2435" y="325" width="110" height="70" as="geometry"/>
                </mxCell>
            </root>
        </mxGraphModel>
    </diagram>
</mxfile>